G04 Layer: TopSilkLayer*
G04 EasyEDA v6.4.25, 2021-11-17T17:00:31+08:00*
G04 7b095086feb547ebadca5fbbb004fff0,8eccfb12f3aa458fbbe36a5a93572a72,10*
G04 Gerber Generator version 0.2*
G04 Scale: 100 percent, Rotated: No, Reflected: No *
G04 Dimensions in millimeters *
G04 leading zeros omitted , absolute positions ,4 integer and 5 decimal *
%FSLAX45Y45*%
%MOMM*%

%ADD10C,0.2540*%
%ADD11C,0.3000*%
%ADD22C,0.2032*%
%ADD23C,0.2030*%
%ADD24C,0.1524*%

%LPD*%
G36*
X562102Y-394716D02*
G01*
X556260Y-394919D01*
X550621Y-395579D01*
X545185Y-396646D01*
X539953Y-398119D01*
X534924Y-400050D01*
X530148Y-402336D01*
X525576Y-404977D01*
X521309Y-408076D01*
X517296Y-411480D01*
X513537Y-415290D01*
X510133Y-419455D01*
X506984Y-423976D01*
X504190Y-428802D01*
X501700Y-433984D01*
X499567Y-439521D01*
X497789Y-445312D01*
X496366Y-451459D01*
X495350Y-457911D01*
X494741Y-464667D01*
X494538Y-471678D01*
X494741Y-478790D01*
X495350Y-485546D01*
X496316Y-492048D01*
X497687Y-498195D01*
X499414Y-504037D01*
X501497Y-509574D01*
X503935Y-514756D01*
X506679Y-519633D01*
X509727Y-524103D01*
X513130Y-528269D01*
X516788Y-532028D01*
X520700Y-535432D01*
X524916Y-538480D01*
X529386Y-541121D01*
X534060Y-543407D01*
X539038Y-545287D01*
X544169Y-546709D01*
X549554Y-547776D01*
X555091Y-548436D01*
X560832Y-548640D01*
X568096Y-548335D01*
X574954Y-547370D01*
X581456Y-545846D01*
X587451Y-543864D01*
X592988Y-541375D01*
X598017Y-538480D01*
X602437Y-535178D01*
X606298Y-531622D01*
X606298Y-469900D01*
X558292Y-469900D01*
X558292Y-483870D01*
X590804Y-483870D01*
X590804Y-524510D01*
X585368Y-528421D01*
X578459Y-531418D01*
X570636Y-533247D01*
X562356Y-533908D01*
X556463Y-533603D01*
X550926Y-532790D01*
X545693Y-531418D01*
X540867Y-529539D01*
X536346Y-527151D01*
X532180Y-524256D01*
X528421Y-520903D01*
X524967Y-517042D01*
X521970Y-512775D01*
X519277Y-508050D01*
X517042Y-502920D01*
X515162Y-497382D01*
X513689Y-491439D01*
X512673Y-485140D01*
X512013Y-478434D01*
X511809Y-471424D01*
X512064Y-464413D01*
X512724Y-457758D01*
X513842Y-451459D01*
X515366Y-445566D01*
X517347Y-440029D01*
X519684Y-434949D01*
X522427Y-430276D01*
X525576Y-426059D01*
X529031Y-422249D01*
X532841Y-418947D01*
X537006Y-416102D01*
X541477Y-413715D01*
X546303Y-411886D01*
X551383Y-410514D01*
X556717Y-409701D01*
X562356Y-409448D01*
X572973Y-410565D01*
X581761Y-413613D01*
X589076Y-418134D01*
X595122Y-423672D01*
X604520Y-412750D01*
X601065Y-409498D01*
X597154Y-406298D01*
X592734Y-403250D01*
X587806Y-400507D01*
X582269Y-398170D01*
X576173Y-396341D01*
X569468Y-395122D01*
G37*
G36*
X788162Y-397256D02*
G01*
X788162Y-411226D01*
X823468Y-411226D01*
X830021Y-411480D01*
X836117Y-412242D01*
X841806Y-413512D01*
X847039Y-415239D01*
X851865Y-417474D01*
X856284Y-420166D01*
X860247Y-423316D01*
X863803Y-426923D01*
X866902Y-430987D01*
X869594Y-435457D01*
X871880Y-440385D01*
X873760Y-445719D01*
X875182Y-451510D01*
X876249Y-457657D01*
X876858Y-464210D01*
X877062Y-471170D01*
X876858Y-478078D01*
X876249Y-484682D01*
X875182Y-490880D01*
X873760Y-496722D01*
X871880Y-502158D01*
X869594Y-507187D01*
X866902Y-511809D01*
X863803Y-515975D01*
X860247Y-519734D01*
X856284Y-522985D01*
X851865Y-525830D01*
X847039Y-528116D01*
X841806Y-529996D01*
X836117Y-531317D01*
X830021Y-532130D01*
X823468Y-532384D01*
X805180Y-532384D01*
X805180Y-411226D01*
X788162Y-411226D01*
X788162Y-546100D01*
X825500Y-546100D01*
X832103Y-545896D01*
X838352Y-545287D01*
X844296Y-544220D01*
X849934Y-542798D01*
X855218Y-540969D01*
X860196Y-538734D01*
X864819Y-536143D01*
X869137Y-533196D01*
X873150Y-529844D01*
X876757Y-526135D01*
X880059Y-522122D01*
X883056Y-517753D01*
X885698Y-513029D01*
X887984Y-507949D01*
X889914Y-502615D01*
X891489Y-496925D01*
X892708Y-490931D01*
X893622Y-484632D01*
X894130Y-478028D01*
X894334Y-471170D01*
X894130Y-464312D01*
X893622Y-457758D01*
X892708Y-451459D01*
X891489Y-445516D01*
X889863Y-439928D01*
X887933Y-434593D01*
X885647Y-429615D01*
X883005Y-424942D01*
X880008Y-420674D01*
X876706Y-416661D01*
X872998Y-413054D01*
X868984Y-409803D01*
X864616Y-406908D01*
X859942Y-404368D01*
X854913Y-402234D01*
X849528Y-400456D01*
X843838Y-399084D01*
X837793Y-398068D01*
X831443Y-397459D01*
X824737Y-397256D01*
G37*
G36*
X642366Y-397256D02*
G01*
X642366Y-546100D01*
X658114Y-546100D01*
X658063Y-458774D01*
X657402Y-441655D01*
X656082Y-419354D01*
X657098Y-419354D01*
X673354Y-449834D01*
X729234Y-546100D01*
X746760Y-546100D01*
X746760Y-397256D01*
X730758Y-397256D01*
X730808Y-483514D01*
X731875Y-506984D01*
X733044Y-524256D01*
X732028Y-524256D01*
X715772Y-493776D01*
X659638Y-397256D01*
G37*
G36*
X714248Y-1436116D02*
G01*
X708050Y-1436471D01*
X702208Y-1437436D01*
X696722Y-1439062D01*
X691489Y-1441145D01*
X686612Y-1443736D01*
X681939Y-1446733D01*
X677570Y-1450035D01*
X673354Y-1453642D01*
X682498Y-1464310D01*
X689203Y-1458518D01*
X696671Y-1453896D01*
X704900Y-1450797D01*
X713740Y-1449578D01*
X719429Y-1450086D01*
X724560Y-1451457D01*
X728980Y-1453591D01*
X732688Y-1456486D01*
X735685Y-1459992D01*
X737870Y-1464208D01*
X739190Y-1468932D01*
X739648Y-1474216D01*
X739444Y-1478280D01*
X738733Y-1482140D01*
X737514Y-1485798D01*
X735736Y-1489202D01*
X733399Y-1492300D01*
X730453Y-1495145D01*
X726846Y-1497634D01*
X722579Y-1499717D01*
X717550Y-1501394D01*
X711860Y-1502664D01*
X705307Y-1503426D01*
X697992Y-1503680D01*
X697992Y-1516634D01*
X706170Y-1516888D01*
X713486Y-1517650D01*
X719886Y-1518869D01*
X725525Y-1520545D01*
X730351Y-1522628D01*
X734415Y-1525168D01*
X737819Y-1528013D01*
X740460Y-1531264D01*
X742492Y-1534871D01*
X743915Y-1538732D01*
X744728Y-1542897D01*
X744982Y-1547368D01*
X744372Y-1553718D01*
X742696Y-1559407D01*
X739952Y-1564335D01*
X736244Y-1568500D01*
X731723Y-1571853D01*
X726440Y-1574292D01*
X720496Y-1575816D01*
X713994Y-1576324D01*
X707644Y-1575968D01*
X701852Y-1574850D01*
X696569Y-1573225D01*
X691794Y-1571040D01*
X687425Y-1568399D01*
X683412Y-1565503D01*
X679754Y-1562354D01*
X676402Y-1559052D01*
X667766Y-1569720D01*
X671626Y-1573580D01*
X675944Y-1577289D01*
X680872Y-1580743D01*
X686358Y-1583791D01*
X692454Y-1586331D01*
X699211Y-1588312D01*
X706729Y-1589582D01*
X715010Y-1590040D01*
X721360Y-1589735D01*
X727456Y-1588770D01*
X733247Y-1587144D01*
X738632Y-1584960D01*
X743610Y-1582216D01*
X748080Y-1578864D01*
X752043Y-1574952D01*
X755396Y-1570532D01*
X758088Y-1565605D01*
X760069Y-1560169D01*
X761339Y-1554276D01*
X761746Y-1547876D01*
X761085Y-1540510D01*
X759256Y-1533804D01*
X756310Y-1527860D01*
X752449Y-1522628D01*
X747725Y-1518208D01*
X742340Y-1514551D01*
X736396Y-1511757D01*
X729996Y-1509776D01*
X729996Y-1509014D01*
X735685Y-1506626D01*
X740816Y-1503629D01*
X745337Y-1500022D01*
X749249Y-1495856D01*
X752398Y-1491030D01*
X754735Y-1485595D01*
X756158Y-1479600D01*
X756666Y-1472946D01*
X756310Y-1467307D01*
X755192Y-1462125D01*
X753465Y-1457350D01*
X751078Y-1453032D01*
X748131Y-1449171D01*
X744626Y-1445768D01*
X740562Y-1442872D01*
X736092Y-1440484D01*
X731164Y-1438605D01*
X725881Y-1437233D01*
X720191Y-1436370D01*
G37*
G36*
X547878Y-1436116D02*
G01*
X541680Y-1436471D01*
X535838Y-1437436D01*
X530352Y-1439062D01*
X525170Y-1441145D01*
X520242Y-1443736D01*
X515569Y-1446733D01*
X511200Y-1450035D01*
X506984Y-1453642D01*
X516128Y-1464310D01*
X522732Y-1458518D01*
X530250Y-1453896D01*
X538480Y-1450797D01*
X547370Y-1449578D01*
X553059Y-1450086D01*
X558190Y-1451457D01*
X562610Y-1453591D01*
X566318Y-1456486D01*
X569315Y-1459992D01*
X571500Y-1464208D01*
X572820Y-1468932D01*
X573278Y-1474216D01*
X573074Y-1478280D01*
X572363Y-1482140D01*
X571144Y-1485798D01*
X569366Y-1489202D01*
X567029Y-1492300D01*
X564032Y-1495145D01*
X560425Y-1497634D01*
X556107Y-1499717D01*
X551078Y-1501394D01*
X545338Y-1502664D01*
X538734Y-1503426D01*
X531368Y-1503680D01*
X531368Y-1516634D01*
X539546Y-1516888D01*
X546862Y-1517650D01*
X553313Y-1518869D01*
X558952Y-1520545D01*
X563829Y-1522628D01*
X567944Y-1525168D01*
X571347Y-1528013D01*
X574040Y-1531264D01*
X576072Y-1534871D01*
X577494Y-1538732D01*
X578358Y-1542897D01*
X578612Y-1547368D01*
X578002Y-1553718D01*
X576326Y-1559407D01*
X573582Y-1564335D01*
X569874Y-1568500D01*
X565353Y-1571853D01*
X560070Y-1574292D01*
X554126Y-1575816D01*
X547624Y-1576324D01*
X541274Y-1575968D01*
X535482Y-1574850D01*
X530199Y-1573225D01*
X525424Y-1571040D01*
X521055Y-1568399D01*
X517042Y-1565503D01*
X513384Y-1562354D01*
X510032Y-1559052D01*
X501396Y-1569720D01*
X505256Y-1573580D01*
X509574Y-1577289D01*
X514400Y-1580743D01*
X519887Y-1583791D01*
X525983Y-1586331D01*
X532739Y-1588312D01*
X540308Y-1589582D01*
X548640Y-1590040D01*
X554990Y-1589735D01*
X561086Y-1588770D01*
X566877Y-1587144D01*
X572262Y-1584960D01*
X577240Y-1582216D01*
X581710Y-1578864D01*
X585673Y-1574952D01*
X589026Y-1570532D01*
X591718Y-1565605D01*
X593699Y-1560169D01*
X594969Y-1554276D01*
X595376Y-1547876D01*
X594715Y-1540510D01*
X592886Y-1533804D01*
X589940Y-1527860D01*
X586079Y-1522628D01*
X581355Y-1518208D01*
X575970Y-1514551D01*
X570026Y-1511757D01*
X563626Y-1509776D01*
X563626Y-1509014D01*
X569315Y-1506626D01*
X574446Y-1503629D01*
X578967Y-1500022D01*
X582879Y-1495856D01*
X586028Y-1491030D01*
X588365Y-1485595D01*
X589788Y-1479600D01*
X590296Y-1472946D01*
X589940Y-1467307D01*
X588822Y-1462125D01*
X587095Y-1457350D01*
X584708Y-1453032D01*
X581761Y-1449171D01*
X578205Y-1445768D01*
X574192Y-1442872D01*
X569722Y-1440484D01*
X564794Y-1438605D01*
X559511Y-1437233D01*
X553821Y-1436370D01*
G37*
G36*
X633984Y-1563624D02*
G01*
X629310Y-1564589D01*
X625398Y-1567281D01*
X622757Y-1571548D01*
X621792Y-1577086D01*
X622757Y-1582420D01*
X625398Y-1586534D01*
X629310Y-1589125D01*
X633984Y-1590040D01*
X638962Y-1589125D01*
X643026Y-1586534D01*
X645718Y-1582420D01*
X646684Y-1577086D01*
X645718Y-1571548D01*
X642975Y-1567332D01*
X638962Y-1564589D01*
G37*
G36*
X955548Y-638556D02*
G01*
X955548Y-787400D01*
X971296Y-787400D01*
X971245Y-700074D01*
X970940Y-688644D01*
X969264Y-660654D01*
X970280Y-660654D01*
X986536Y-691134D01*
X1042416Y-787400D01*
X1059942Y-787400D01*
X1059942Y-638556D01*
X1043940Y-638556D01*
X1043990Y-724814D01*
X1045057Y-748284D01*
X1046226Y-765556D01*
X1045210Y-765556D01*
X1029208Y-735076D01*
X972819Y-638556D01*
G37*
G36*
X897128Y-638556D02*
G01*
X897128Y-787400D01*
X914146Y-787400D01*
X914146Y-638556D01*
G37*
G36*
X638048Y-638556D02*
G01*
X638048Y-787400D01*
X654050Y-787400D01*
X653999Y-700074D01*
X653338Y-682955D01*
X652018Y-660654D01*
X653034Y-660654D01*
X669290Y-691134D01*
X725170Y-787400D01*
X742696Y-787400D01*
X742696Y-638556D01*
X726440Y-638556D01*
X726490Y-724814D01*
X727557Y-748284D01*
X728726Y-765556D01*
X727710Y-765556D01*
X711708Y-735076D01*
X655320Y-638556D01*
G37*
G36*
X547116Y-638556D02*
G01*
X516861Y-727202D01*
X532638Y-727202D01*
X542493Y-696823D01*
X555752Y-652780D01*
X556514Y-652780D01*
X567842Y-690575D01*
X572008Y-703072D01*
X579628Y-727202D01*
X516861Y-727202D01*
X496316Y-787400D01*
X513080Y-787400D01*
X528320Y-740410D01*
X583946Y-740410D01*
X598678Y-787400D01*
X616712Y-787400D01*
X565658Y-638556D01*
G37*
G36*
X766064Y-803910D02*
G01*
X766064Y-815340D01*
X873760Y-815340D01*
X873760Y-803910D01*
G37*
G36*
X782320Y-1159256D02*
G01*
X782320Y-1308100D01*
X797560Y-1308100D01*
X797509Y-1217269D01*
X796493Y-1195070D01*
X795528Y-1179068D01*
X796290Y-1179068D01*
X808228Y-1212850D01*
X837437Y-1292860D01*
X848868Y-1292860D01*
X878078Y-1212850D01*
X889762Y-1179068D01*
X890524Y-1179068D01*
X888695Y-1211986D01*
X888492Y-1222248D01*
X888492Y-1308100D01*
X904240Y-1308100D01*
X904240Y-1159256D01*
X883412Y-1159256D01*
X854456Y-1240536D01*
X844042Y-1272286D01*
X843026Y-1272286D01*
X832358Y-1240536D01*
X803148Y-1159256D01*
G37*
G36*
X589788Y-1159256D02*
G01*
X622046Y-1308100D01*
X641604Y-1308100D01*
X664972Y-1215390D01*
X672592Y-1181608D01*
X673354Y-1181608D01*
X680720Y-1215390D01*
X704596Y-1308100D01*
X724408Y-1308100D01*
X755650Y-1159256D01*
X739648Y-1159256D01*
X720902Y-1253947D01*
X714502Y-1290320D01*
X713486Y-1290320D01*
X702564Y-1242060D01*
X681228Y-1159256D01*
X665480Y-1159256D01*
X642975Y-1248003D01*
X633476Y-1290320D01*
X632714Y-1290320D01*
X623570Y-1242060D01*
X607060Y-1159256D01*
G37*
G36*
X478028Y-1159256D02*
G01*
X478028Y-1172972D01*
X516635Y-1172972D01*
X523189Y-1173124D01*
X529234Y-1173581D01*
X534619Y-1174445D01*
X539496Y-1175664D01*
X543763Y-1177239D01*
X547522Y-1179322D01*
X550621Y-1181862D01*
X553212Y-1184859D01*
X555193Y-1188415D01*
X556615Y-1192479D01*
X557479Y-1197152D01*
X557784Y-1202436D01*
X557530Y-1207719D01*
X556717Y-1212443D01*
X555345Y-1216710D01*
X553415Y-1220470D01*
X550926Y-1223772D01*
X547928Y-1226616D01*
X544322Y-1228953D01*
X540156Y-1230884D01*
X535381Y-1232357D01*
X530047Y-1233373D01*
X524154Y-1233982D01*
X517651Y-1234186D01*
X494792Y-1234186D01*
X494792Y-1172972D01*
X478028Y-1172972D01*
X478028Y-1308100D01*
X494792Y-1308100D01*
X494792Y-1247902D01*
X525983Y-1247749D01*
X531774Y-1247241D01*
X537260Y-1246378D01*
X542391Y-1245158D01*
X547217Y-1243584D01*
X551738Y-1241704D01*
X555853Y-1239418D01*
X559612Y-1236776D01*
X563016Y-1233779D01*
X565962Y-1230426D01*
X568553Y-1226718D01*
X570636Y-1222603D01*
X572312Y-1218133D01*
X573532Y-1213307D01*
X574294Y-1208074D01*
X574548Y-1202436D01*
X574294Y-1196695D01*
X573532Y-1191412D01*
X572312Y-1186586D01*
X570585Y-1182166D01*
X568452Y-1178255D01*
X565861Y-1174699D01*
X562864Y-1171600D01*
X559460Y-1168857D01*
X555599Y-1166469D01*
X551434Y-1164488D01*
X546862Y-1162812D01*
X541985Y-1161491D01*
X536752Y-1160475D01*
X531164Y-1159814D01*
X525322Y-1159408D01*
X519176Y-1159256D01*
G37*
G36*
X1070356Y-877316D02*
G01*
X1064920Y-877519D01*
X1059637Y-878179D01*
X1054557Y-879246D01*
X1049680Y-880719D01*
X1044956Y-882599D01*
X1040485Y-884834D01*
X1036269Y-887526D01*
X1032256Y-890524D01*
X1028547Y-893978D01*
X1025042Y-897737D01*
X1021842Y-901852D01*
X1018946Y-906322D01*
X1016304Y-911148D01*
X1014018Y-916330D01*
X1012037Y-921766D01*
X1010361Y-927557D01*
X1009091Y-933703D01*
X1008126Y-940104D01*
X1007567Y-946810D01*
X1007364Y-953769D01*
X1024636Y-953769D01*
X1024839Y-946810D01*
X1025499Y-940155D01*
X1026515Y-933907D01*
X1027937Y-928065D01*
X1029716Y-922578D01*
X1031849Y-917498D01*
X1034389Y-912825D01*
X1037234Y-908608D01*
X1040384Y-904849D01*
X1043838Y-901547D01*
X1047597Y-898702D01*
X1051661Y-896315D01*
X1055928Y-894486D01*
X1060500Y-893114D01*
X1065326Y-892302D01*
X1070356Y-892048D01*
X1075385Y-892302D01*
X1080211Y-893114D01*
X1084783Y-894486D01*
X1089050Y-896315D01*
X1093114Y-898702D01*
X1096873Y-901547D01*
X1100328Y-904849D01*
X1103477Y-908608D01*
X1106322Y-912825D01*
X1108862Y-917498D01*
X1110996Y-922578D01*
X1112774Y-928065D01*
X1114196Y-933907D01*
X1115212Y-940155D01*
X1115872Y-946810D01*
X1116076Y-953769D01*
X1115872Y-960729D01*
X1115212Y-967384D01*
X1114196Y-973683D01*
X1112774Y-979627D01*
X1110996Y-985215D01*
X1108862Y-990346D01*
X1106322Y-995121D01*
X1103477Y-999439D01*
X1100328Y-1003300D01*
X1096873Y-1006703D01*
X1093114Y-1009650D01*
X1089050Y-1012037D01*
X1084783Y-1013968D01*
X1080211Y-1015390D01*
X1075385Y-1016203D01*
X1070356Y-1016508D01*
X1065326Y-1016203D01*
X1060500Y-1015390D01*
X1055928Y-1013968D01*
X1051661Y-1012037D01*
X1047597Y-1009650D01*
X1043838Y-1006703D01*
X1040384Y-1003300D01*
X1037234Y-999439D01*
X1034389Y-995121D01*
X1031849Y-990346D01*
X1029716Y-985215D01*
X1027937Y-979627D01*
X1026515Y-973683D01*
X1025499Y-967384D01*
X1024839Y-960729D01*
X1024636Y-953769D01*
X1007364Y-953769D01*
X1007567Y-960780D01*
X1008126Y-967486D01*
X1009091Y-973937D01*
X1010361Y-980084D01*
X1012037Y-985926D01*
X1014018Y-991463D01*
X1016304Y-996645D01*
X1018946Y-1001572D01*
X1021842Y-1006094D01*
X1025042Y-1010310D01*
X1028547Y-1014171D01*
X1032256Y-1017625D01*
X1036269Y-1020775D01*
X1040485Y-1023467D01*
X1044956Y-1025804D01*
X1049680Y-1027734D01*
X1054557Y-1029258D01*
X1059637Y-1030376D01*
X1064920Y-1031036D01*
X1070356Y-1031240D01*
X1075791Y-1031036D01*
X1081074Y-1030376D01*
X1086154Y-1029258D01*
X1091031Y-1027734D01*
X1095756Y-1025804D01*
X1100226Y-1023467D01*
X1104442Y-1020775D01*
X1108456Y-1017625D01*
X1112164Y-1014171D01*
X1115669Y-1010310D01*
X1118870Y-1006094D01*
X1121765Y-1001572D01*
X1124407Y-996645D01*
X1126693Y-991463D01*
X1128674Y-985926D01*
X1130350Y-980084D01*
X1131620Y-973937D01*
X1132586Y-967486D01*
X1133144Y-960780D01*
X1133348Y-953769D01*
X1133144Y-946810D01*
X1132586Y-940104D01*
X1131620Y-933703D01*
X1130350Y-927557D01*
X1128674Y-921766D01*
X1126693Y-916330D01*
X1124407Y-911148D01*
X1121765Y-906322D01*
X1118870Y-901852D01*
X1115669Y-897737D01*
X1112164Y-893978D01*
X1108456Y-890524D01*
X1104442Y-887526D01*
X1100226Y-884834D01*
X1095756Y-882599D01*
X1091031Y-880719D01*
X1086154Y-879246D01*
X1081074Y-878179D01*
X1075791Y-877519D01*
G37*
G36*
X680212Y-877316D02*
G01*
X674776Y-877519D01*
X669493Y-878179D01*
X664413Y-879246D01*
X659536Y-880719D01*
X654812Y-882599D01*
X650341Y-884834D01*
X646125Y-887526D01*
X642112Y-890524D01*
X638403Y-893978D01*
X634898Y-897737D01*
X631698Y-901852D01*
X628802Y-906322D01*
X626160Y-911148D01*
X623874Y-916330D01*
X621893Y-921766D01*
X620217Y-927557D01*
X618947Y-933703D01*
X617982Y-940104D01*
X617423Y-946810D01*
X617220Y-953769D01*
X634492Y-953769D01*
X634695Y-946810D01*
X635355Y-940155D01*
X636371Y-933907D01*
X637794Y-928065D01*
X639572Y-922578D01*
X641705Y-917498D01*
X644245Y-912825D01*
X647039Y-908608D01*
X650240Y-904849D01*
X653694Y-901547D01*
X657453Y-898702D01*
X661517Y-896315D01*
X665784Y-894486D01*
X670356Y-893114D01*
X675182Y-892302D01*
X680212Y-892048D01*
X685241Y-892302D01*
X690067Y-893114D01*
X694639Y-894486D01*
X698906Y-896315D01*
X702970Y-898702D01*
X706729Y-901547D01*
X710184Y-904849D01*
X713384Y-908608D01*
X716178Y-912825D01*
X718718Y-917498D01*
X720852Y-922578D01*
X722630Y-928065D01*
X724052Y-933907D01*
X725068Y-940155D01*
X725728Y-946810D01*
X725932Y-953769D01*
X725728Y-960729D01*
X725068Y-967384D01*
X724052Y-973683D01*
X722630Y-979627D01*
X720852Y-985215D01*
X718718Y-990346D01*
X716178Y-995121D01*
X713384Y-999439D01*
X710184Y-1003300D01*
X706729Y-1006703D01*
X702970Y-1009650D01*
X698906Y-1012037D01*
X694639Y-1013968D01*
X690067Y-1015390D01*
X685241Y-1016203D01*
X680212Y-1016508D01*
X675182Y-1016203D01*
X670356Y-1015390D01*
X665784Y-1013968D01*
X661517Y-1012037D01*
X657453Y-1009650D01*
X653694Y-1006703D01*
X650240Y-1003300D01*
X647039Y-999439D01*
X644245Y-995121D01*
X641705Y-990346D01*
X639572Y-985215D01*
X637794Y-979627D01*
X636371Y-973683D01*
X635355Y-967384D01*
X634695Y-960729D01*
X634492Y-953769D01*
X617220Y-953769D01*
X617423Y-960780D01*
X617982Y-967486D01*
X618947Y-973937D01*
X620217Y-980084D01*
X621893Y-985926D01*
X623874Y-991463D01*
X626160Y-996645D01*
X628802Y-1001572D01*
X631698Y-1006094D01*
X634898Y-1010310D01*
X638403Y-1014171D01*
X642112Y-1017625D01*
X646125Y-1020775D01*
X650341Y-1023467D01*
X654812Y-1025804D01*
X659536Y-1027734D01*
X664413Y-1029258D01*
X669493Y-1030376D01*
X674776Y-1031036D01*
X680212Y-1031240D01*
X685647Y-1031036D01*
X690930Y-1030376D01*
X696010Y-1029258D01*
X700887Y-1027734D01*
X705612Y-1025804D01*
X710082Y-1023467D01*
X714298Y-1020775D01*
X718312Y-1017625D01*
X722020Y-1014171D01*
X725525Y-1010310D01*
X728726Y-1006094D01*
X731621Y-1001572D01*
X734263Y-996645D01*
X736549Y-991463D01*
X738530Y-985926D01*
X740206Y-980084D01*
X741476Y-973937D01*
X742442Y-967486D01*
X743000Y-960780D01*
X743204Y-953769D01*
X743000Y-946810D01*
X742442Y-940104D01*
X741476Y-933703D01*
X740206Y-927557D01*
X738530Y-921766D01*
X736549Y-916330D01*
X734263Y-911148D01*
X731621Y-906322D01*
X728726Y-901852D01*
X725525Y-897737D01*
X722020Y-893978D01*
X718312Y-890524D01*
X714298Y-887526D01*
X710082Y-884834D01*
X705612Y-882599D01*
X700887Y-880719D01*
X696010Y-879246D01*
X690930Y-878179D01*
X685647Y-877519D01*
G37*
G36*
X559816Y-877316D02*
G01*
X554278Y-877519D01*
X548843Y-878179D01*
X543610Y-879246D01*
X538581Y-880719D01*
X533755Y-882650D01*
X529132Y-884936D01*
X524764Y-887577D01*
X520598Y-890676D01*
X516686Y-894080D01*
X513080Y-897890D01*
X509727Y-902055D01*
X506679Y-906576D01*
X503935Y-911402D01*
X501548Y-916584D01*
X499465Y-922121D01*
X497738Y-927912D01*
X496366Y-934059D01*
X495350Y-940511D01*
X494741Y-947267D01*
X494538Y-954278D01*
X494741Y-961390D01*
X495350Y-968146D01*
X496316Y-974648D01*
X497636Y-980795D01*
X499364Y-986637D01*
X501396Y-992174D01*
X503783Y-997356D01*
X506476Y-1002233D01*
X509473Y-1006703D01*
X512724Y-1010869D01*
X516280Y-1014628D01*
X520090Y-1018032D01*
X524154Y-1021080D01*
X528472Y-1023721D01*
X532993Y-1026007D01*
X537768Y-1027887D01*
X542696Y-1029309D01*
X547827Y-1030376D01*
X553110Y-1031036D01*
X558546Y-1031240D01*
X565556Y-1030884D01*
X572160Y-1029817D01*
X578358Y-1028090D01*
X584149Y-1025702D01*
X589584Y-1022705D01*
X594715Y-1019048D01*
X599490Y-1014780D01*
X604012Y-1009903D01*
X594614Y-999490D01*
X590854Y-1003350D01*
X586943Y-1006754D01*
X582930Y-1009650D01*
X578662Y-1012088D01*
X574243Y-1014018D01*
X569518Y-1015390D01*
X564591Y-1016203D01*
X559308Y-1016508D01*
X553974Y-1016203D01*
X548894Y-1015390D01*
X544068Y-1014018D01*
X539546Y-1012139D01*
X535330Y-1009751D01*
X531418Y-1006856D01*
X527862Y-1003503D01*
X524611Y-999642D01*
X521716Y-995375D01*
X519125Y-990650D01*
X516940Y-985519D01*
X515112Y-979982D01*
X513689Y-974039D01*
X512673Y-967740D01*
X512013Y-961034D01*
X511809Y-954024D01*
X512013Y-947013D01*
X512673Y-940358D01*
X513740Y-934059D01*
X515264Y-928166D01*
X517143Y-922629D01*
X519379Y-917549D01*
X522020Y-912876D01*
X524967Y-908659D01*
X528320Y-904849D01*
X531977Y-901547D01*
X535940Y-898702D01*
X540207Y-896315D01*
X544779Y-894486D01*
X549605Y-893114D01*
X554736Y-892302D01*
X560070Y-892048D01*
X569264Y-893114D01*
X577443Y-896010D01*
X584606Y-900531D01*
X590804Y-906271D01*
X600202Y-895350D01*
X596798Y-891895D01*
X592886Y-888542D01*
X588518Y-885494D01*
X583641Y-882802D01*
X578307Y-880567D01*
X572566Y-878789D01*
X566369Y-877722D01*
G37*
G36*
X1297178Y-879856D02*
G01*
X1297178Y-894080D01*
X1342644Y-894080D01*
X1342644Y-1028700D01*
X1359662Y-1028700D01*
X1359662Y-894080D01*
X1405128Y-894080D01*
X1405128Y-879856D01*
G37*
G36*
X1165352Y-879856D02*
G01*
X1165352Y-968248D01*
X1165606Y-976782D01*
X1166418Y-984605D01*
X1167688Y-991717D01*
X1169466Y-998118D01*
X1171651Y-1003909D01*
X1174292Y-1009040D01*
X1177290Y-1013612D01*
X1180693Y-1017574D01*
X1184402Y-1020978D01*
X1188466Y-1023823D01*
X1192784Y-1026210D01*
X1197406Y-1028090D01*
X1202232Y-1029512D01*
X1207262Y-1030478D01*
X1212545Y-1031036D01*
X1217930Y-1031240D01*
X1223314Y-1031036D01*
X1228598Y-1030478D01*
X1233627Y-1029512D01*
X1238453Y-1028090D01*
X1243076Y-1026210D01*
X1247394Y-1023823D01*
X1251458Y-1020978D01*
X1255166Y-1017574D01*
X1258570Y-1013612D01*
X1261567Y-1009040D01*
X1264208Y-1003909D01*
X1266393Y-998118D01*
X1268171Y-991717D01*
X1269441Y-984605D01*
X1270254Y-976782D01*
X1270508Y-968248D01*
X1270508Y-879856D01*
X1254506Y-879856D01*
X1254506Y-968502D01*
X1254150Y-977137D01*
X1253185Y-984758D01*
X1251610Y-991412D01*
X1249476Y-997203D01*
X1246835Y-1002131D01*
X1243736Y-1006246D01*
X1240231Y-1009548D01*
X1236319Y-1012190D01*
X1232103Y-1014171D01*
X1227582Y-1015492D01*
X1222857Y-1016253D01*
X1217930Y-1016508D01*
X1213104Y-1016253D01*
X1208481Y-1015492D01*
X1204061Y-1014171D01*
X1199946Y-1012190D01*
X1196136Y-1009548D01*
X1192682Y-1006246D01*
X1189634Y-1002131D01*
X1187043Y-997203D01*
X1184960Y-991412D01*
X1183386Y-984758D01*
X1182471Y-977137D01*
X1182116Y-968502D01*
X1182116Y-879856D01*
G37*
G36*
X775716Y-879856D02*
G01*
X775716Y-893571D01*
X814578Y-893571D01*
X821080Y-893724D01*
X827074Y-894181D01*
X832459Y-895045D01*
X837336Y-896264D01*
X841603Y-897839D01*
X845362Y-899921D01*
X848512Y-902462D01*
X851103Y-905459D01*
X853135Y-909015D01*
X854557Y-913079D01*
X855421Y-917752D01*
X855726Y-923036D01*
X855471Y-928319D01*
X854659Y-933043D01*
X853287Y-937310D01*
X851357Y-941069D01*
X848868Y-944371D01*
X845819Y-947216D01*
X842213Y-949553D01*
X837996Y-951484D01*
X833221Y-952957D01*
X827836Y-953973D01*
X821893Y-954582D01*
X815340Y-954786D01*
X792734Y-954786D01*
X792734Y-893571D01*
X775716Y-893571D01*
X775716Y-1028700D01*
X792734Y-1028700D01*
X792734Y-968502D01*
X823925Y-968349D01*
X829716Y-967841D01*
X835152Y-966978D01*
X840282Y-965758D01*
X845108Y-964184D01*
X849579Y-962304D01*
X853694Y-960018D01*
X857453Y-957376D01*
X860806Y-954379D01*
X863752Y-951026D01*
X866292Y-947318D01*
X868375Y-943203D01*
X870051Y-938733D01*
X871270Y-933907D01*
X871982Y-928674D01*
X872236Y-923036D01*
X871982Y-917295D01*
X871219Y-912012D01*
X870000Y-907186D01*
X868324Y-902766D01*
X866190Y-898855D01*
X863650Y-895299D01*
X860653Y-892200D01*
X857250Y-889457D01*
X853440Y-887069D01*
X849274Y-885088D01*
X844753Y-883412D01*
X839876Y-882091D01*
X834644Y-881075D01*
X829106Y-880414D01*
X823264Y-880008D01*
X817118Y-879856D01*
G37*
G36*
X884936Y-1045210D02*
G01*
X884936Y-1056640D01*
X992886Y-1056640D01*
X992886Y-1045210D01*
G37*
D22*
X1618487Y-1139189D02*
G01*
X1536700Y-1253744D01*
X1659381Y-1253744D01*
X1618487Y-1139189D02*
G01*
X1618487Y-1310894D01*
X1721612Y-1270000D02*
G01*
X1713484Y-1278128D01*
X1721612Y-1286510D01*
X1729739Y-1278128D01*
X1721612Y-1270000D01*
X1898395Y-1139189D02*
G01*
X1816607Y-1310894D01*
X1783842Y-1139189D02*
G01*
X1898395Y-1139189D01*
X1952243Y-1139189D02*
G01*
X1952243Y-1310894D01*
X2034031Y-1196339D02*
G01*
X1952243Y-1278128D01*
X1985009Y-1245615D02*
G01*
X2042413Y-1310894D01*
X1485900Y-1425955D02*
G01*
X1502155Y-1417828D01*
X1526794Y-1393189D01*
X1526794Y-1564894D01*
X1580895Y-1450339D02*
G01*
X1580895Y-1564894D01*
X1580895Y-1483105D02*
G01*
X1605279Y-1458721D01*
X1621789Y-1450339D01*
X1646173Y-1450339D01*
X1662684Y-1458721D01*
X1670812Y-1483105D01*
X1670812Y-1564894D01*
X1790192Y-1393189D02*
G01*
X1773936Y-1393189D01*
X1757426Y-1401318D01*
X1749297Y-1425955D01*
X1749297Y-1564894D01*
X1724913Y-1450339D02*
G01*
X1782063Y-1450339D01*
X1413255Y-1748789D02*
G01*
X1503426Y-1748789D01*
X1454150Y-1814321D01*
X1478787Y-1814321D01*
X1495297Y-1822450D01*
X1503426Y-1830578D01*
X1511554Y-1855215D01*
X1511554Y-1871471D01*
X1503426Y-1896110D01*
X1486915Y-1912365D01*
X1462531Y-1920494D01*
X1437894Y-1920494D01*
X1413255Y-1912365D01*
X1405128Y-1904237D01*
X1397000Y-1887728D01*
X1573784Y-1879600D02*
G01*
X1565655Y-1887728D01*
X1573784Y-1896110D01*
X1581912Y-1887728D01*
X1573784Y-1879600D01*
X1652270Y-1748789D02*
G01*
X1742186Y-1748789D01*
X1693163Y-1814321D01*
X1717802Y-1814321D01*
X1734057Y-1822450D01*
X1742186Y-1830578D01*
X1750568Y-1855215D01*
X1750568Y-1871471D01*
X1742186Y-1896110D01*
X1725929Y-1912365D01*
X1701292Y-1920494D01*
X1676907Y-1920494D01*
X1652270Y-1912365D01*
X1644142Y-1904237D01*
X1636013Y-1887728D01*
X897381Y-1789684D02*
G01*
X889254Y-1773428D01*
X872997Y-1756918D01*
X856487Y-1748789D01*
X823721Y-1748789D01*
X807465Y-1756918D01*
X790955Y-1773428D01*
X782828Y-1789684D01*
X774700Y-1814321D01*
X774700Y-1855215D01*
X782828Y-1879600D01*
X790955Y-1896110D01*
X807465Y-1912365D01*
X823721Y-1920494D01*
X856487Y-1920494D01*
X872997Y-1912365D01*
X889254Y-1896110D01*
X897381Y-1879600D01*
X897381Y-1855215D01*
X856487Y-1855215D02*
G01*
X897381Y-1855215D01*
X951484Y-1748789D02*
G01*
X951484Y-1920494D01*
X951484Y-1748789D02*
G01*
X1066037Y-1920494D01*
X1066037Y-1748789D02*
G01*
X1066037Y-1920494D01*
X1119886Y-1748789D02*
G01*
X1119886Y-1920494D01*
X1119886Y-1748789D02*
G01*
X1177289Y-1748789D01*
X1201673Y-1756918D01*
X1218184Y-1773428D01*
X1226312Y-1789684D01*
X1234439Y-1814321D01*
X1234439Y-1855215D01*
X1226312Y-1879600D01*
X1218184Y-1896110D01*
X1201673Y-1912365D01*
X1177289Y-1920494D01*
X1119886Y-1920494D01*
D24*
X2488691Y-1893315D02*
G01*
X2478277Y-1898650D01*
X2467863Y-1909063D01*
X2462784Y-1919223D01*
X2462784Y-1940052D01*
X2467863Y-1950465D01*
X2478277Y-1960879D01*
X2488691Y-1966213D01*
X2504440Y-1971294D01*
X2530347Y-1971294D01*
X2545841Y-1966213D01*
X2556256Y-1960879D01*
X2566670Y-1950465D01*
X2571750Y-1940052D01*
X2571750Y-1919223D01*
X2566670Y-1909063D01*
X2556256Y-1898650D01*
X2545841Y-1893315D01*
X2462784Y-1848612D02*
G01*
X2462784Y-1791462D01*
X2504440Y-1822704D01*
X2504440Y-1807210D01*
X2509520Y-1796795D01*
X2514600Y-1791462D01*
X2530347Y-1786381D01*
X2540761Y-1786381D01*
X2556256Y-1791462D01*
X2566670Y-1801876D01*
X2571750Y-1817623D01*
X2571750Y-1833118D01*
X2566670Y-1848612D01*
X2561590Y-1853945D01*
X2551175Y-1859026D01*
X2158491Y-1941321D02*
G01*
X2148077Y-1946655D01*
X2137663Y-1957070D01*
X2132584Y-1967229D01*
X2132584Y-1988057D01*
X2137663Y-1998471D01*
X2148077Y-2008886D01*
X2158491Y-2014220D01*
X2174240Y-2019300D01*
X2200147Y-2019300D01*
X2215641Y-2014220D01*
X2226056Y-2008886D01*
X2236470Y-1998471D01*
X2241550Y-1988057D01*
X2241550Y-1967229D01*
X2236470Y-1957070D01*
X2226056Y-1946655D01*
X2215641Y-1941321D01*
X2158491Y-1901952D02*
G01*
X2153411Y-1901952D01*
X2142997Y-1896618D01*
X2137663Y-1891537D01*
X2132584Y-1881123D01*
X2132584Y-1860295D01*
X2137663Y-1849881D01*
X2142997Y-1844802D01*
X2153411Y-1839468D01*
X2163825Y-1839468D01*
X2174240Y-1844802D01*
X2189734Y-1855215D01*
X2241550Y-1907031D01*
X2241550Y-1834387D01*
X3194050Y-1250292D02*
G01*
X3303015Y-1250292D01*
X3194050Y-1250292D02*
G01*
X3194050Y-1203556D01*
X3199129Y-1188062D01*
X3204463Y-1182728D01*
X3214877Y-1177648D01*
X3225291Y-1177648D01*
X3235706Y-1182728D01*
X3240786Y-1188062D01*
X3245865Y-1203556D01*
X3245865Y-1250292D01*
X3245865Y-1213970D02*
G01*
X3303015Y-1177648D01*
X3194050Y-1132944D02*
G01*
X3194050Y-1075794D01*
X3235706Y-1106782D01*
X3235706Y-1091288D01*
X3240786Y-1080874D01*
X3245865Y-1075794D01*
X3261613Y-1070460D01*
X3272027Y-1070460D01*
X3287522Y-1075794D01*
X3297936Y-1086208D01*
X3303015Y-1101702D01*
X3303015Y-1117196D01*
X3297936Y-1132944D01*
X3292856Y-1138024D01*
X3282441Y-1143358D01*
X3212084Y-673100D02*
G01*
X3321050Y-673100D01*
X3212084Y-673100D02*
G01*
X3212084Y-626363D01*
X3217163Y-610870D01*
X3222497Y-605536D01*
X3232911Y-600455D01*
X3243325Y-600455D01*
X3253740Y-605536D01*
X3258820Y-610870D01*
X3263900Y-626363D01*
X3263900Y-673100D01*
X3263900Y-636778D02*
G01*
X3321050Y-600455D01*
X3212084Y-514095D02*
G01*
X3284727Y-566165D01*
X3284727Y-488187D01*
X3212084Y-514095D02*
G01*
X3321050Y-514095D01*
X1929384Y-838200D02*
G01*
X2007361Y-838200D01*
X2022856Y-833120D01*
X2033270Y-822705D01*
X2038350Y-806957D01*
X2038350Y-796544D01*
X2033270Y-781050D01*
X2022856Y-770636D01*
X2007361Y-765555D01*
X1929384Y-765555D01*
X1950211Y-731265D02*
G01*
X1944877Y-720852D01*
X1929384Y-705104D01*
X2038350Y-705104D01*
D10*
X1308100Y-2260600D02*
G01*
X1308100Y-1689100D01*
D22*
X812800Y-2286000D02*
G01*
X812800Y-2032000D01*
X1828800Y-2032000D01*
X1828800Y-2286000D01*
X1638300Y-2286000D01*
D23*
X812800Y-2286000D02*
G01*
X1638300Y-2286000D01*
D24*
X1427116Y-1395539D02*
G01*
X1286116Y-1395539D01*
X1286116Y-1576260D02*
G01*
X1427116Y-1576260D01*
X1442356Y-1561020D02*
G01*
X1442356Y-1410779D01*
X1064877Y-1395539D02*
G01*
X1205877Y-1395539D01*
X1205877Y-1576260D02*
G01*
X1064877Y-1576260D01*
X1049637Y-1561020D02*
G01*
X1049637Y-1410779D01*
X2386139Y-1306177D02*
G01*
X2386139Y-1447177D01*
X2566860Y-1447177D02*
G01*
X2566860Y-1306177D01*
X2551620Y-1290937D02*
G01*
X2401379Y-1290937D01*
X2386139Y-1668416D02*
G01*
X2386139Y-1527416D01*
X2566860Y-1527416D02*
G01*
X2566860Y-1668416D01*
X2551620Y-1683656D02*
G01*
X2401379Y-1683656D01*
X2087839Y-1302438D02*
G01*
X2087839Y-1450936D01*
X2306360Y-1450936D02*
G01*
X2306360Y-1302438D01*
X2291120Y-1287198D02*
G01*
X2103079Y-1287198D01*
X2087839Y-1784677D02*
G01*
X2087839Y-1636179D01*
X2306360Y-1636179D02*
G01*
X2306360Y-1784677D01*
X2291120Y-1799917D02*
G01*
X2103079Y-1799917D01*
D23*
X431800Y-1612900D02*
G01*
X431800Y-533400D01*
D22*
X431800Y-533400D02*
G01*
X431800Y-342900D01*
X177800Y-342900D01*
X177800Y-1612900D01*
X431800Y-1612900D01*
D24*
X1331541Y-1111290D02*
G01*
X1467533Y-1111290D01*
X1467533Y-1327109D01*
X1331541Y-1327109D01*
X1141300Y-1111290D02*
G01*
X1005309Y-1111290D01*
X1005309Y-1327109D01*
X1141300Y-1327109D01*
X2927390Y-975337D02*
G01*
X2927390Y-839345D01*
X3143209Y-839345D01*
X3143209Y-975337D01*
X2927390Y-1165578D02*
G01*
X2927390Y-1301569D01*
X3143209Y-1301569D01*
X3143209Y-1165578D01*
X2927390Y-501779D02*
G01*
X2927390Y-365787D01*
X3143209Y-365787D01*
X3143209Y-501779D01*
X2927390Y-692020D02*
G01*
X2927390Y-828012D01*
X3143209Y-828012D01*
X3143209Y-692020D01*
X2158740Y-1057719D02*
G01*
X1854459Y-1057719D01*
X1854459Y-542480D01*
X2158740Y-542480D01*
X2158740Y-1057719D01*
G75*
G01*
X1049637Y-1410780D02*
G02*
X1064877Y-1395540I15240J0D01*
G75*
G01*
X1427117Y-1576260D02*
G03*
X1442357Y-1561020I0J15240D01*
G75*
G01*
X1442357Y-1410780D02*
G03*
X1427117Y-1395540I-15240J0D01*
G75*
G01*
X1064877Y-1576260D02*
G02*
X1049637Y-1561020I0J15240D01*
G75*
G01*
X2401379Y-1683657D02*
G02*
X2386140Y-1668417I1J15240D01*
G75*
G01*
X2566860Y-1306177D02*
G03*
X2551621Y-1290937I-15240J0D01*
G75*
G01*
X2401379Y-1290937D02*
G03*
X2386140Y-1306177I1J-15240D01*
G75*
G01*
X2566860Y-1668417D02*
G02*
X2551621Y-1683657I-15240J0D01*
G75*
G01*
X2103079Y-1799918D02*
G02*
X2087839Y-1784678I0J15240D01*
G75*
G01*
X2306361Y-1302438D02*
G03*
X2291121Y-1287198I-15240J0D01*
G75*
G01*
X2103079Y-1287198D02*
G03*
X2087839Y-1302438I0J-15240D01*
G75*
G01*
X2306361Y-1784678D02*
G02*
X2291121Y-1799918I-15240J0D01*
D11*
G75*
G01
X2289861Y-1067333D02*
G03X2289861Y-1067333I-15011J0D01*
G75*
G01
X2098523Y-990600D02*
G03X2098523Y-990600I-15011J0D01*
M02*
