G04 Layer: BottomLayer*
G04 EasyEDA v6.4.25, 2021-11-17T17:00:31+08:00*
G04 7b095086feb547ebadca5fbbb004fff0,8eccfb12f3aa458fbbe36a5a93572a72,10*
G04 Gerber Generator version 0.2*
G04 Scale: 100 percent, Rotated: No, Reflected: No *
G04 Dimensions in millimeters *
G04 leading zeros omitted , absolute positions ,4 integer and 5 decimal *
%FSLAX45Y45*%
%MOMM*%

%ADD10C,0.2540*%
%ADD11C,0.3000*%
%ADD14C,0.8000*%
%ADD20R,1.5748X1.5748*%
%ADD21C,1.5748*%

%LPD*%
D11*
X1384300Y-1219200D02*
G01*
X1282700Y-1219200D01*
X1219200Y-1155700D01*
X1219200Y-800100D01*
X1206500Y-787400D01*
D10*
X92887Y-2407112D02*
G01*
X82904Y-2396098D01*
X82904Y-2396098D02*
G01*
X74049Y-2384158D01*
X74049Y-2384158D02*
G01*
X66406Y-2371407D01*
X66406Y-2371407D02*
G01*
X60050Y-2357969D01*
X60050Y-2357969D02*
G01*
X55042Y-2343972D01*
X55042Y-2343972D02*
G01*
X51430Y-2329552D01*
X51430Y-2329552D02*
G01*
X49249Y-2314848D01*
X49249Y-2314848D02*
G01*
X48463Y-2298841D01*
X48463Y-2298841D02*
G01*
X48463Y-201158D01*
X48463Y-201158D02*
G01*
X49249Y-185152D01*
X49249Y-185152D02*
G01*
X51430Y-170447D01*
X51430Y-170447D02*
G01*
X55042Y-156027D01*
X55042Y-156027D02*
G01*
X60050Y-142030D01*
X60050Y-142030D02*
G01*
X66406Y-128592D01*
X66406Y-128592D02*
G01*
X74049Y-115842D01*
X74049Y-115842D02*
G01*
X82904Y-103902D01*
X82904Y-103902D02*
G01*
X92887Y-92887D01*
X92887Y-92887D02*
G01*
X103902Y-82904D01*
X103902Y-82904D02*
G01*
X115842Y-74049D01*
X115842Y-74049D02*
G01*
X128592Y-66406D01*
X128592Y-66406D02*
G01*
X142030Y-60050D01*
X142030Y-60050D02*
G01*
X156027Y-55042D01*
X156027Y-55042D02*
G01*
X170447Y-51430D01*
X170447Y-51430D02*
G01*
X185152Y-49249D01*
X185152Y-49249D02*
G01*
X201158Y-48463D01*
X201158Y-48463D02*
G01*
X3298842Y-48463D01*
X3298842Y-48463D02*
G01*
X3314848Y-49249D01*
X3314848Y-49249D02*
G01*
X3329553Y-51430D01*
X3329553Y-51430D02*
G01*
X3343973Y-55042D01*
X3343973Y-55042D02*
G01*
X3357969Y-60050D01*
X3357969Y-60050D02*
G01*
X3371408Y-66406D01*
X3371408Y-66406D02*
G01*
X3384158Y-74049D01*
X3384158Y-74049D02*
G01*
X3396098Y-82904D01*
X3396098Y-82904D02*
G01*
X3407113Y-92887D01*
X3407113Y-92887D02*
G01*
X3417096Y-103902D01*
X3417096Y-103902D02*
G01*
X3425951Y-115842D01*
X3425951Y-115842D02*
G01*
X3433594Y-128592D01*
X3433594Y-128592D02*
G01*
X3439949Y-142030D01*
X3439949Y-142030D02*
G01*
X3444957Y-156027D01*
X3444957Y-156027D02*
G01*
X3448569Y-170447D01*
X3448569Y-170447D02*
G01*
X3450751Y-185152D01*
X3450751Y-185152D02*
G01*
X3451537Y-201158D01*
X3451537Y-201158D02*
G01*
X3451537Y-2298841D01*
X3451537Y-2298841D02*
G01*
X3450751Y-2314848D01*
X3450751Y-2314848D02*
G01*
X3448569Y-2329552D01*
X3448569Y-2329552D02*
G01*
X3444957Y-2343972D01*
X3444957Y-2343972D02*
G01*
X3439949Y-2357969D01*
X3439949Y-2357969D02*
G01*
X3433594Y-2371407D01*
X3433594Y-2371407D02*
G01*
X3425951Y-2384158D01*
X3425951Y-2384158D02*
G01*
X3417096Y-2396098D01*
X3417096Y-2396098D02*
G01*
X3407113Y-2407112D01*
X3407113Y-2407112D02*
G01*
X3396098Y-2417095D01*
X3396098Y-2417095D02*
G01*
X3384158Y-2425950D01*
X3384158Y-2425950D02*
G01*
X3371408Y-2433593D01*
X3371408Y-2433593D02*
G01*
X3357969Y-2439949D01*
X3357969Y-2439949D02*
G01*
X3343973Y-2444957D01*
X3343973Y-2444957D02*
G01*
X3329553Y-2448569D01*
X3329553Y-2448569D02*
G01*
X3314848Y-2450750D01*
X3314848Y-2450750D02*
G01*
X3298842Y-2451536D01*
X3298842Y-2451536D02*
G01*
X201158Y-2451536D01*
X201158Y-2451536D02*
G01*
X185152Y-2450750D01*
X185152Y-2450750D02*
G01*
X170447Y-2448569D01*
X170447Y-2448569D02*
G01*
X156027Y-2444957D01*
X156027Y-2444957D02*
G01*
X142030Y-2439949D01*
X142030Y-2439949D02*
G01*
X128592Y-2433593D01*
X128592Y-2433593D02*
G01*
X115842Y-2425950D01*
X115842Y-2425950D02*
G01*
X103902Y-2417095D01*
X103902Y-2417095D02*
G01*
X92887Y-2407112D01*
X217723Y-1578627D02*
G01*
X230031Y-1588809D01*
X230031Y-1588809D02*
G01*
X243519Y-1597368D01*
X243519Y-1597368D02*
G01*
X257973Y-1604170D01*
X257973Y-1604170D02*
G01*
X273165Y-1609106D01*
X273165Y-1609106D02*
G01*
X288857Y-1612100D01*
X288857Y-1612100D02*
G01*
X304800Y-1613103D01*
X304800Y-1613103D02*
G01*
X320742Y-1612100D01*
X320742Y-1612100D02*
G01*
X336434Y-1609106D01*
X336434Y-1609106D02*
G01*
X351626Y-1604170D01*
X351626Y-1604170D02*
G01*
X366080Y-1597368D01*
X366080Y-1597368D02*
G01*
X379568Y-1588809D01*
X379568Y-1588809D02*
G01*
X391876Y-1578627D01*
X391876Y-1578627D02*
G01*
X402811Y-1566982D01*
X402811Y-1566982D02*
G01*
X412201Y-1554058D01*
X412201Y-1554058D02*
G01*
X419896Y-1540060D01*
X419896Y-1540060D02*
G01*
X425777Y-1525208D01*
X425777Y-1525208D02*
G01*
X429749Y-1509735D01*
X429749Y-1509735D02*
G01*
X431752Y-1493887D01*
X431752Y-1493887D02*
G01*
X431752Y-1477912D01*
X431752Y-1477912D02*
G01*
X429749Y-1462064D01*
X429749Y-1462064D02*
G01*
X425777Y-1446591D01*
X425777Y-1446591D02*
G01*
X419896Y-1431739D01*
X419896Y-1431739D02*
G01*
X412201Y-1417741D01*
X412201Y-1417741D02*
G01*
X402811Y-1404817D01*
X402811Y-1404817D02*
G01*
X391876Y-1393172D01*
X391876Y-1393172D02*
G01*
X379568Y-1382990D01*
X379568Y-1382990D02*
G01*
X366080Y-1374431D01*
X366080Y-1374431D02*
G01*
X351626Y-1367629D01*
X351626Y-1367629D02*
G01*
X336434Y-1362693D01*
X336434Y-1362693D02*
G01*
X320742Y-1359699D01*
X320742Y-1359699D02*
G01*
X308029Y-1358900D01*
X308029Y-1358900D02*
G01*
X320742Y-1358100D01*
X320742Y-1358100D02*
G01*
X336434Y-1355106D01*
X336434Y-1355106D02*
G01*
X351626Y-1350170D01*
X351626Y-1350170D02*
G01*
X366080Y-1343368D01*
X366080Y-1343368D02*
G01*
X379568Y-1334809D01*
X379568Y-1334809D02*
G01*
X391876Y-1324627D01*
X391876Y-1324627D02*
G01*
X402811Y-1312982D01*
X402811Y-1312982D02*
G01*
X412201Y-1300058D01*
X412201Y-1300058D02*
G01*
X419896Y-1286060D01*
X419896Y-1286060D02*
G01*
X425777Y-1271208D01*
X425777Y-1271208D02*
G01*
X429749Y-1255735D01*
X429749Y-1255735D02*
G01*
X431752Y-1239887D01*
X431752Y-1239887D02*
G01*
X431752Y-1223912D01*
X431752Y-1223912D02*
G01*
X429749Y-1208064D01*
X429749Y-1208064D02*
G01*
X425777Y-1192591D01*
X425777Y-1192591D02*
G01*
X419896Y-1177739D01*
X419896Y-1177739D02*
G01*
X412201Y-1163741D01*
X412201Y-1163741D02*
G01*
X402811Y-1150817D01*
X402811Y-1150817D02*
G01*
X391876Y-1139172D01*
X391876Y-1139172D02*
G01*
X379568Y-1128990D01*
X379568Y-1128990D02*
G01*
X366080Y-1120431D01*
X366080Y-1120431D02*
G01*
X351626Y-1113629D01*
X351626Y-1113629D02*
G01*
X336434Y-1108693D01*
X336434Y-1108693D02*
G01*
X320742Y-1105699D01*
X320742Y-1105699D02*
G01*
X308029Y-1104900D01*
X308029Y-1104900D02*
G01*
X320742Y-1104100D01*
X320742Y-1104100D02*
G01*
X336434Y-1101106D01*
X336434Y-1101106D02*
G01*
X351626Y-1096170D01*
X351626Y-1096170D02*
G01*
X366080Y-1089368D01*
X366080Y-1089368D02*
G01*
X379568Y-1080809D01*
X379568Y-1080809D02*
G01*
X391876Y-1070627D01*
X391876Y-1070627D02*
G01*
X402811Y-1058982D01*
X402811Y-1058982D02*
G01*
X412201Y-1046058D01*
X412201Y-1046058D02*
G01*
X419896Y-1032060D01*
X419896Y-1032060D02*
G01*
X425777Y-1017208D01*
X425777Y-1017208D02*
G01*
X429749Y-1001735D01*
X429749Y-1001735D02*
G01*
X431752Y-985887D01*
X431752Y-985887D02*
G01*
X431752Y-969912D01*
X431752Y-969912D02*
G01*
X429749Y-954064D01*
X429749Y-954064D02*
G01*
X425777Y-938591D01*
X425777Y-938591D02*
G01*
X419896Y-923739D01*
X419896Y-923739D02*
G01*
X412201Y-909741D01*
X412201Y-909741D02*
G01*
X402811Y-896817D01*
X402811Y-896817D02*
G01*
X391876Y-885172D01*
X391876Y-885172D02*
G01*
X379568Y-874990D01*
X379568Y-874990D02*
G01*
X366080Y-866431D01*
X366080Y-866431D02*
G01*
X351626Y-859629D01*
X351626Y-859629D02*
G01*
X336434Y-854693D01*
X336434Y-854693D02*
G01*
X320742Y-851699D01*
X320742Y-851699D02*
G01*
X308029Y-850900D01*
X308029Y-850900D02*
G01*
X320742Y-850100D01*
X320742Y-850100D02*
G01*
X336434Y-847106D01*
X336434Y-847106D02*
G01*
X351626Y-842170D01*
X351626Y-842170D02*
G01*
X366080Y-835368D01*
X366080Y-835368D02*
G01*
X379568Y-826809D01*
X379568Y-826809D02*
G01*
X391876Y-816627D01*
X391876Y-816627D02*
G01*
X402811Y-804982D01*
X402811Y-804982D02*
G01*
X412201Y-792058D01*
X412201Y-792058D02*
G01*
X419896Y-778060D01*
X419896Y-778060D02*
G01*
X425777Y-763208D01*
X425777Y-763208D02*
G01*
X429749Y-747735D01*
X429749Y-747735D02*
G01*
X431752Y-731887D01*
X431752Y-731887D02*
G01*
X431752Y-715912D01*
X431752Y-715912D02*
G01*
X429749Y-700064D01*
X429749Y-700064D02*
G01*
X425777Y-684591D01*
X425777Y-684591D02*
G01*
X419896Y-669739D01*
X419896Y-669739D02*
G01*
X412201Y-655741D01*
X412201Y-655741D02*
G01*
X402811Y-642817D01*
X402811Y-642817D02*
G01*
X391876Y-631172D01*
X391876Y-631172D02*
G01*
X379568Y-620990D01*
X379568Y-620990D02*
G01*
X366080Y-612431D01*
X366080Y-612431D02*
G01*
X351626Y-605629D01*
X351626Y-605629D02*
G01*
X336434Y-600693D01*
X336434Y-600693D02*
G01*
X320742Y-597699D01*
X320742Y-597699D02*
G01*
X304800Y-596696D01*
X304800Y-596696D02*
G01*
X288857Y-597699D01*
X288857Y-597699D02*
G01*
X273165Y-600693D01*
X273165Y-600693D02*
G01*
X257973Y-605629D01*
X257973Y-605629D02*
G01*
X243519Y-612431D01*
X243519Y-612431D02*
G01*
X230031Y-620990D01*
X230031Y-620990D02*
G01*
X217723Y-631172D01*
X217723Y-631172D02*
G01*
X206788Y-642817D01*
X206788Y-642817D02*
G01*
X197398Y-655741D01*
X197398Y-655741D02*
G01*
X189703Y-669739D01*
X189703Y-669739D02*
G01*
X183822Y-684591D01*
X183822Y-684591D02*
G01*
X179850Y-700064D01*
X179850Y-700064D02*
G01*
X177847Y-715912D01*
X177847Y-715912D02*
G01*
X177847Y-731887D01*
X177847Y-731887D02*
G01*
X179850Y-747735D01*
X179850Y-747735D02*
G01*
X183822Y-763208D01*
X183822Y-763208D02*
G01*
X189703Y-778060D01*
X189703Y-778060D02*
G01*
X197398Y-792058D01*
X197398Y-792058D02*
G01*
X206788Y-804982D01*
X206788Y-804982D02*
G01*
X217723Y-816627D01*
X217723Y-816627D02*
G01*
X230031Y-826809D01*
X230031Y-826809D02*
G01*
X243519Y-835368D01*
X243519Y-835368D02*
G01*
X257973Y-842170D01*
X257973Y-842170D02*
G01*
X273165Y-847106D01*
X273165Y-847106D02*
G01*
X288857Y-850100D01*
X288857Y-850100D02*
G01*
X301570Y-850900D01*
X301570Y-850900D02*
G01*
X288857Y-851699D01*
X288857Y-851699D02*
G01*
X273165Y-854693D01*
X273165Y-854693D02*
G01*
X257973Y-859629D01*
X257973Y-859629D02*
G01*
X243519Y-866431D01*
X243519Y-866431D02*
G01*
X230031Y-874990D01*
X230031Y-874990D02*
G01*
X217723Y-885172D01*
X217723Y-885172D02*
G01*
X206788Y-896817D01*
X206788Y-896817D02*
G01*
X197398Y-909741D01*
X197398Y-909741D02*
G01*
X189703Y-923739D01*
X189703Y-923739D02*
G01*
X183822Y-938591D01*
X183822Y-938591D02*
G01*
X179850Y-954064D01*
X179850Y-954064D02*
G01*
X177847Y-969912D01*
X177847Y-969912D02*
G01*
X177847Y-985887D01*
X177847Y-985887D02*
G01*
X179850Y-1001735D01*
X179850Y-1001735D02*
G01*
X183822Y-1017208D01*
X183822Y-1017208D02*
G01*
X189703Y-1032060D01*
X189703Y-1032060D02*
G01*
X197398Y-1046058D01*
X197398Y-1046058D02*
G01*
X206788Y-1058982D01*
X206788Y-1058982D02*
G01*
X217723Y-1070627D01*
X217723Y-1070627D02*
G01*
X230031Y-1080809D01*
X230031Y-1080809D02*
G01*
X243519Y-1089368D01*
X243519Y-1089368D02*
G01*
X257973Y-1096170D01*
X257973Y-1096170D02*
G01*
X273165Y-1101106D01*
X273165Y-1101106D02*
G01*
X288857Y-1104100D01*
X288857Y-1104100D02*
G01*
X301570Y-1104900D01*
X301570Y-1104900D02*
G01*
X288857Y-1105699D01*
X288857Y-1105699D02*
G01*
X273165Y-1108693D01*
X273165Y-1108693D02*
G01*
X257973Y-1113629D01*
X257973Y-1113629D02*
G01*
X243519Y-1120431D01*
X243519Y-1120431D02*
G01*
X230031Y-1128990D01*
X230031Y-1128990D02*
G01*
X217723Y-1139172D01*
X217723Y-1139172D02*
G01*
X206788Y-1150817D01*
X206788Y-1150817D02*
G01*
X197398Y-1163741D01*
X197398Y-1163741D02*
G01*
X189703Y-1177739D01*
X189703Y-1177739D02*
G01*
X183822Y-1192591D01*
X183822Y-1192591D02*
G01*
X179850Y-1208064D01*
X179850Y-1208064D02*
G01*
X177847Y-1223912D01*
X177847Y-1223912D02*
G01*
X177847Y-1239887D01*
X177847Y-1239887D02*
G01*
X179850Y-1255735D01*
X179850Y-1255735D02*
G01*
X183822Y-1271208D01*
X183822Y-1271208D02*
G01*
X189703Y-1286060D01*
X189703Y-1286060D02*
G01*
X197398Y-1300058D01*
X197398Y-1300058D02*
G01*
X206788Y-1312982D01*
X206788Y-1312982D02*
G01*
X217723Y-1324627D01*
X217723Y-1324627D02*
G01*
X230031Y-1334809D01*
X230031Y-1334809D02*
G01*
X243519Y-1343368D01*
X243519Y-1343368D02*
G01*
X257973Y-1350170D01*
X257973Y-1350170D02*
G01*
X273165Y-1355106D01*
X273165Y-1355106D02*
G01*
X288857Y-1358100D01*
X288857Y-1358100D02*
G01*
X301570Y-1358900D01*
X301570Y-1358900D02*
G01*
X288857Y-1359699D01*
X288857Y-1359699D02*
G01*
X273165Y-1362693D01*
X273165Y-1362693D02*
G01*
X257973Y-1367629D01*
X257973Y-1367629D02*
G01*
X243519Y-1374431D01*
X243519Y-1374431D02*
G01*
X230031Y-1382990D01*
X230031Y-1382990D02*
G01*
X217723Y-1393172D01*
X217723Y-1393172D02*
G01*
X206788Y-1404817D01*
X206788Y-1404817D02*
G01*
X197398Y-1417741D01*
X197398Y-1417741D02*
G01*
X189703Y-1431739D01*
X189703Y-1431739D02*
G01*
X183822Y-1446591D01*
X183822Y-1446591D02*
G01*
X179850Y-1462064D01*
X179850Y-1462064D02*
G01*
X177847Y-1477912D01*
X177847Y-1477912D02*
G01*
X177847Y-1493887D01*
X177847Y-1493887D02*
G01*
X179850Y-1509735D01*
X179850Y-1509735D02*
G01*
X183822Y-1525208D01*
X183822Y-1525208D02*
G01*
X189703Y-1540060D01*
X189703Y-1540060D02*
G01*
X197398Y-1554058D01*
X197398Y-1554058D02*
G01*
X206788Y-1566982D01*
X206788Y-1566982D02*
G01*
X217723Y-1578627D01*
X1170584Y-1196493D02*
G01*
X1174324Y-1200575D01*
X1174324Y-1200575D02*
G01*
X1237824Y-1264075D01*
X1237824Y-1264075D02*
G01*
X1241906Y-1267815D01*
X1241906Y-1267815D02*
G01*
X1246299Y-1271185D01*
X1246299Y-1271185D02*
G01*
X1250968Y-1274160D01*
X1250968Y-1274160D02*
G01*
X1255879Y-1276717D01*
X1255879Y-1276717D02*
G01*
X1260994Y-1278835D01*
X1260994Y-1278835D02*
G01*
X1266274Y-1280500D01*
X1266274Y-1280500D02*
G01*
X1271679Y-1281698D01*
X1271679Y-1281698D02*
G01*
X1277168Y-1282421D01*
X1277168Y-1282421D02*
G01*
X1282700Y-1282663D01*
X1282700Y-1282663D02*
G01*
X1323007Y-1282663D01*
X1323007Y-1282663D02*
G01*
X1326596Y-1286252D01*
X1326596Y-1286252D02*
G01*
X1337234Y-1294103D01*
X1337234Y-1294103D02*
G01*
X1348924Y-1300281D01*
X1348924Y-1300281D02*
G01*
X1361404Y-1304648D01*
X1361404Y-1304648D02*
G01*
X1374395Y-1307106D01*
X1374395Y-1307106D02*
G01*
X1387607Y-1307601D01*
X1387607Y-1307601D02*
G01*
X1400746Y-1306120D01*
X1400746Y-1306120D02*
G01*
X1413517Y-1302698D01*
X1413517Y-1302698D02*
G01*
X1425635Y-1297411D01*
X1425635Y-1297411D02*
G01*
X1436831Y-1290377D01*
X1436831Y-1290377D02*
G01*
X1446852Y-1281752D01*
X1446852Y-1281752D02*
G01*
X1455477Y-1271731D01*
X1455477Y-1271731D02*
G01*
X1462511Y-1260535D01*
X1462511Y-1260535D02*
G01*
X1467798Y-1248417D01*
X1467798Y-1248417D02*
G01*
X1471220Y-1235646D01*
X1471220Y-1235646D02*
G01*
X1472701Y-1222507D01*
X1472701Y-1222507D02*
G01*
X1472206Y-1209295D01*
X1472206Y-1209295D02*
G01*
X1469748Y-1196304D01*
X1469748Y-1196304D02*
G01*
X1465381Y-1183824D01*
X1465381Y-1183824D02*
G01*
X1459203Y-1172134D01*
X1459203Y-1172134D02*
G01*
X1451352Y-1161496D01*
X1451352Y-1161496D02*
G01*
X1442003Y-1152147D01*
X1442003Y-1152147D02*
G01*
X1431365Y-1144296D01*
X1431365Y-1144296D02*
G01*
X1419675Y-1138118D01*
X1419675Y-1138118D02*
G01*
X1407195Y-1133751D01*
X1407195Y-1133751D02*
G01*
X1394204Y-1131293D01*
X1394204Y-1131293D02*
G01*
X1380992Y-1130798D01*
X1380992Y-1130798D02*
G01*
X1367853Y-1132279D01*
X1367853Y-1132279D02*
G01*
X1355082Y-1135701D01*
X1355082Y-1135701D02*
G01*
X1342964Y-1140988D01*
X1342964Y-1140988D02*
G01*
X1331768Y-1148022D01*
X1331768Y-1148022D02*
G01*
X1322804Y-1155736D01*
X1322804Y-1155736D02*
G01*
X1308987Y-1155736D01*
X1308987Y-1155736D02*
G01*
X1282663Y-1129412D01*
X1282663Y-1129412D02*
G01*
X1282663Y-831996D01*
X1282663Y-831996D02*
G01*
X1284711Y-828735D01*
X1284711Y-828735D02*
G01*
X1289998Y-816617D01*
X1289998Y-816617D02*
G01*
X1293420Y-803846D01*
X1293420Y-803846D02*
G01*
X1294901Y-790707D01*
X1294901Y-790707D02*
G01*
X1294406Y-777495D01*
X1294406Y-777495D02*
G01*
X1291948Y-764504D01*
X1291948Y-764504D02*
G01*
X1287581Y-752024D01*
X1287581Y-752024D02*
G01*
X1281403Y-740334D01*
X1281403Y-740334D02*
G01*
X1273552Y-729696D01*
X1273552Y-729696D02*
G01*
X1264203Y-720347D01*
X1264203Y-720347D02*
G01*
X1253565Y-712496D01*
X1253565Y-712496D02*
G01*
X1241875Y-706318D01*
X1241875Y-706318D02*
G01*
X1229395Y-701951D01*
X1229395Y-701951D02*
G01*
X1216404Y-699493D01*
X1216404Y-699493D02*
G01*
X1203192Y-698998D01*
X1203192Y-698998D02*
G01*
X1190053Y-700479D01*
X1190053Y-700479D02*
G01*
X1177282Y-703901D01*
X1177282Y-703901D02*
G01*
X1165164Y-709188D01*
X1165164Y-709188D02*
G01*
X1153968Y-716222D01*
X1153968Y-716222D02*
G01*
X1143947Y-724847D01*
X1143947Y-724847D02*
G01*
X1135322Y-734868D01*
X1135322Y-734868D02*
G01*
X1128288Y-746064D01*
X1128288Y-746064D02*
G01*
X1123001Y-758182D01*
X1123001Y-758182D02*
G01*
X1119579Y-770953D01*
X1119579Y-770953D02*
G01*
X1118098Y-784092D01*
X1118098Y-784092D02*
G01*
X1118593Y-797304D01*
X1118593Y-797304D02*
G01*
X1121051Y-810295D01*
X1121051Y-810295D02*
G01*
X1125418Y-822775D01*
X1125418Y-822775D02*
G01*
X1131596Y-834465D01*
X1131596Y-834465D02*
G01*
X1139447Y-845103D01*
X1139447Y-845103D02*
G01*
X1148796Y-854452D01*
X1148796Y-854452D02*
G01*
X1155736Y-859574D01*
X1155736Y-859574D02*
G01*
X1155736Y-1155700D01*
X1155736Y-1155700D02*
G01*
X1155978Y-1161231D01*
X1155978Y-1161231D02*
G01*
X1156701Y-1166720D01*
X1156701Y-1166720D02*
G01*
X1157899Y-1172125D01*
X1157899Y-1172125D02*
G01*
X1159564Y-1177405D01*
X1159564Y-1177405D02*
G01*
X1161682Y-1182520D01*
X1161682Y-1182520D02*
G01*
X1164239Y-1187431D01*
X1164239Y-1187431D02*
G01*
X1167214Y-1192100D01*
X1167214Y-1192100D02*
G01*
X1170584Y-1196493D01*
X1344890Y-2233768D02*
G01*
X1355072Y-2246076D01*
X1355072Y-2246076D02*
G01*
X1366717Y-2257011D01*
X1366717Y-2257011D02*
G01*
X1379641Y-2266401D01*
X1379641Y-2266401D02*
G01*
X1393639Y-2274096D01*
X1393639Y-2274096D02*
G01*
X1408491Y-2279977D01*
X1408491Y-2279977D02*
G01*
X1423964Y-2283949D01*
X1423964Y-2283949D02*
G01*
X1439812Y-2285952D01*
X1439812Y-2285952D02*
G01*
X1455787Y-2285952D01*
X1455787Y-2285952D02*
G01*
X1471635Y-2283949D01*
X1471635Y-2283949D02*
G01*
X1487108Y-2279977D01*
X1487108Y-2279977D02*
G01*
X1501960Y-2274096D01*
X1501960Y-2274096D02*
G01*
X1515958Y-2266401D01*
X1515958Y-2266401D02*
G01*
X1528882Y-2257011D01*
X1528882Y-2257011D02*
G01*
X1540527Y-2246076D01*
X1540527Y-2246076D02*
G01*
X1550709Y-2233768D01*
X1550709Y-2233768D02*
G01*
X1559268Y-2220280D01*
X1559268Y-2220280D02*
G01*
X1566070Y-2205826D01*
X1566070Y-2205826D02*
G01*
X1571006Y-2190634D01*
X1571006Y-2190634D02*
G01*
X1574000Y-2174942D01*
X1574000Y-2174942D02*
G01*
X1574596Y-2165459D01*
X1574596Y-2165459D02*
G01*
X1574596Y-2237739D01*
X1574596Y-2237739D02*
G01*
X1575527Y-2247194D01*
X1575527Y-2247194D02*
G01*
X1578285Y-2256286D01*
X1578285Y-2256286D02*
G01*
X1582764Y-2264664D01*
X1582764Y-2264664D02*
G01*
X1588791Y-2272008D01*
X1588791Y-2272008D02*
G01*
X1596135Y-2278035D01*
X1596135Y-2278035D02*
G01*
X1604513Y-2282514D01*
X1604513Y-2282514D02*
G01*
X1613605Y-2285272D01*
X1613605Y-2285272D02*
G01*
X1623060Y-2286203D01*
X1623060Y-2286203D02*
G01*
X1780539Y-2286203D01*
X1780539Y-2286203D02*
G01*
X1789994Y-2285272D01*
X1789994Y-2285272D02*
G01*
X1799086Y-2282514D01*
X1799086Y-2282514D02*
G01*
X1807464Y-2278035D01*
X1807464Y-2278035D02*
G01*
X1814808Y-2272008D01*
X1814808Y-2272008D02*
G01*
X1820835Y-2264664D01*
X1820835Y-2264664D02*
G01*
X1825314Y-2256286D01*
X1825314Y-2256286D02*
G01*
X1828072Y-2247194D01*
X1828072Y-2247194D02*
G01*
X1829003Y-2237739D01*
X1829003Y-2237739D02*
G01*
X1829003Y-2080260D01*
X1829003Y-2080260D02*
G01*
X1828072Y-2070805D01*
X1828072Y-2070805D02*
G01*
X1825314Y-2061713D01*
X1825314Y-2061713D02*
G01*
X1820835Y-2053335D01*
X1820835Y-2053335D02*
G01*
X1814808Y-2045991D01*
X1814808Y-2045991D02*
G01*
X1807464Y-2039964D01*
X1807464Y-2039964D02*
G01*
X1799086Y-2035485D01*
X1799086Y-2035485D02*
G01*
X1789994Y-2032727D01*
X1789994Y-2032727D02*
G01*
X1780539Y-2031796D01*
X1780539Y-2031796D02*
G01*
X1623060Y-2031796D01*
X1623060Y-2031796D02*
G01*
X1613605Y-2032727D01*
X1613605Y-2032727D02*
G01*
X1604513Y-2035485D01*
X1604513Y-2035485D02*
G01*
X1596135Y-2039964D01*
X1596135Y-2039964D02*
G01*
X1588791Y-2045991D01*
X1588791Y-2045991D02*
G01*
X1582764Y-2053335D01*
X1582764Y-2053335D02*
G01*
X1578285Y-2061713D01*
X1578285Y-2061713D02*
G01*
X1575527Y-2070805D01*
X1575527Y-2070805D02*
G01*
X1574596Y-2080260D01*
X1574596Y-2080260D02*
G01*
X1574596Y-2152540D01*
X1574596Y-2152540D02*
G01*
X1574000Y-2143057D01*
X1574000Y-2143057D02*
G01*
X1571006Y-2127365D01*
X1571006Y-2127365D02*
G01*
X1566070Y-2112173D01*
X1566070Y-2112173D02*
G01*
X1559268Y-2097719D01*
X1559268Y-2097719D02*
G01*
X1550709Y-2084231D01*
X1550709Y-2084231D02*
G01*
X1540527Y-2071923D01*
X1540527Y-2071923D02*
G01*
X1528882Y-2060988D01*
X1528882Y-2060988D02*
G01*
X1515958Y-2051598D01*
X1515958Y-2051598D02*
G01*
X1501960Y-2043903D01*
X1501960Y-2043903D02*
G01*
X1487108Y-2038022D01*
X1487108Y-2038022D02*
G01*
X1471635Y-2034050D01*
X1471635Y-2034050D02*
G01*
X1455787Y-2032047D01*
X1455787Y-2032047D02*
G01*
X1439812Y-2032047D01*
X1439812Y-2032047D02*
G01*
X1423964Y-2034050D01*
X1423964Y-2034050D02*
G01*
X1408491Y-2038022D01*
X1408491Y-2038022D02*
G01*
X1393639Y-2043903D01*
X1393639Y-2043903D02*
G01*
X1379641Y-2051598D01*
X1379641Y-2051598D02*
G01*
X1366717Y-2060988D01*
X1366717Y-2060988D02*
G01*
X1355072Y-2071923D01*
X1355072Y-2071923D02*
G01*
X1344890Y-2084231D01*
X1344890Y-2084231D02*
G01*
X1336331Y-2097719D01*
X1336331Y-2097719D02*
G01*
X1329529Y-2112173D01*
X1329529Y-2112173D02*
G01*
X1324593Y-2127365D01*
X1324593Y-2127365D02*
G01*
X1321599Y-2143057D01*
X1321599Y-2143057D02*
G01*
X1320596Y-2159000D01*
X1320596Y-2159000D02*
G01*
X1321599Y-2174942D01*
X1321599Y-2174942D02*
G01*
X1324593Y-2190634D01*
X1324593Y-2190634D02*
G01*
X1329529Y-2205826D01*
X1329529Y-2205826D02*
G01*
X1336331Y-2220280D01*
X1336331Y-2220280D02*
G01*
X1344890Y-2233768D01*
X61758Y-2361580D02*
G01*
X138419Y-2438241D01*
X48463Y-2240521D02*
G01*
X259478Y-2451536D01*
X48463Y-2132758D02*
G01*
X367241Y-2451536D01*
X48463Y-2024995D02*
G01*
X475004Y-2451536D01*
X48463Y-1917232D02*
G01*
X582767Y-2451536D01*
X48463Y-1809469D02*
G01*
X690530Y-2451536D01*
X48463Y-1701706D02*
G01*
X798293Y-2451536D01*
X48463Y-1593943D02*
G01*
X906056Y-2451536D01*
X48463Y-1486180D02*
G01*
X1013819Y-2451536D01*
X48463Y-1378417D02*
G01*
X179873Y-1509827D01*
X280564Y-1610518D02*
G01*
X1121582Y-2451536D01*
X48463Y-1270654D02*
G01*
X196743Y-1418933D01*
X371646Y-1593837D02*
G01*
X1229346Y-2451536D01*
X48463Y-1162890D02*
G01*
X254728Y-1369156D01*
X421523Y-1535951D02*
G01*
X1337109Y-2451536D01*
X48463Y-1055127D02*
G01*
X184419Y-1191084D01*
X345497Y-1352162D02*
G01*
X370694Y-1377358D01*
X413574Y-1420239D02*
G01*
X1444872Y-2451536D01*
X48463Y-947364D02*
G01*
X230066Y-1128968D01*
X407553Y-1306455D02*
G01*
X1552635Y-2451536D01*
X48463Y-839601D02*
G01*
X177951Y-969090D01*
X313422Y-1104560D02*
G01*
X314146Y-1105284D01*
X431604Y-1222743D02*
G01*
X1327446Y-2118584D01*
X1488348Y-2279486D02*
G01*
X1660398Y-2451536D01*
X48463Y-731838D02*
G01*
X210010Y-893386D01*
X389345Y-1072720D02*
G01*
X1373027Y-2056403D01*
X1550566Y-2233941D02*
G01*
X1768161Y-2451536D01*
X48463Y-624075D02*
G01*
X182519Y-758131D01*
X270690Y-846302D02*
G01*
X278133Y-853745D01*
X429009Y-1004621D02*
G01*
X1456529Y-2032141D01*
X1574440Y-2150052D02*
G01*
X1574596Y-2150209D01*
X1710590Y-2286203D02*
G01*
X1875924Y-2451536D01*
X48463Y-516312D02*
G01*
X194026Y-661875D01*
X366960Y-834810D02*
G01*
X1583991Y-2051840D01*
X1808959Y-2276808D02*
G01*
X1983687Y-2451536D01*
X48463Y-408549D02*
G01*
X249520Y-609606D01*
X419214Y-779301D02*
G01*
X1671710Y-2031796D01*
X1829003Y-2189089D02*
G01*
X2091450Y-2451536D01*
X48463Y-300786D02*
G01*
X354799Y-607122D01*
X421522Y-673845D02*
G01*
X1779473Y-2031796D01*
X1829003Y-2081326D02*
G01*
X2199213Y-2451536D01*
X48844Y-193404D02*
G01*
X2306976Y-2451536D01*
X76176Y-112973D02*
G01*
X2414739Y-2451536D01*
X134553Y-63587D02*
G01*
X1155736Y-1084770D01*
X1378215Y-1307249D02*
G01*
X2522502Y-2451536D01*
X227192Y-48463D02*
G01*
X1155736Y-977007D01*
X1282663Y-1103934D02*
G01*
X1329072Y-1150343D01*
X1453156Y-1274427D02*
G01*
X2630266Y-2451536D01*
X334955Y-48463D02*
G01*
X1155736Y-869244D01*
X1282663Y-996170D02*
G01*
X1430141Y-1143649D01*
X1459850Y-1173358D02*
G01*
X2738029Y-2451536D01*
X442718Y-48463D02*
G01*
X1132930Y-738675D01*
X1282663Y-888407D02*
G01*
X2845792Y-2451536D01*
X550481Y-48463D02*
G01*
X1201237Y-699219D01*
X1294680Y-792662D02*
G01*
X2953555Y-2451536D01*
X658244Y-48463D02*
G01*
X3061318Y-2451536D01*
X766007Y-48463D02*
G01*
X3169081Y-2451536D01*
X873770Y-48463D02*
G01*
X3276844Y-2451536D01*
X981533Y-48463D02*
G01*
X3368187Y-2435116D01*
X1089297Y-48463D02*
G01*
X3425542Y-2384709D01*
X1197060Y-48463D02*
G01*
X3451345Y-2302748D01*
X1304823Y-48463D02*
G01*
X3451537Y-2195177D01*
X1412586Y-48463D02*
G01*
X3451537Y-2087414D01*
X1520349Y-48463D02*
G01*
X3451537Y-1979651D01*
X1628112Y-48463D02*
G01*
X3451537Y-1871888D01*
X1735875Y-48463D02*
G01*
X3451537Y-1764125D01*
X1843638Y-48463D02*
G01*
X3451537Y-1656362D01*
X1951401Y-48463D02*
G01*
X3451537Y-1548599D01*
X2059164Y-48463D02*
G01*
X3451537Y-1440836D01*
X2166927Y-48463D02*
G01*
X3451537Y-1333073D01*
X2274690Y-48463D02*
G01*
X3451537Y-1225309D01*
X2382453Y-48463D02*
G01*
X3451537Y-1117546D01*
X2490216Y-48463D02*
G01*
X3451537Y-1009783D01*
X2597980Y-48463D02*
G01*
X3451537Y-902020D01*
X2705743Y-48463D02*
G01*
X3451537Y-794257D01*
X2813506Y-48463D02*
G01*
X3451537Y-686494D01*
X2921269Y-48463D02*
G01*
X3451537Y-578731D01*
X3029032Y-48463D02*
G01*
X3451537Y-470968D01*
X3136795Y-48463D02*
G01*
X3451537Y-363205D01*
X3244558Y-48463D02*
G01*
X3451537Y-255442D01*
X3369239Y-65380D02*
G01*
X3434619Y-130761D01*
X3264658Y-2451536D02*
G01*
X3451537Y-2264657D01*
X3156895Y-2451536D02*
G01*
X3451537Y-2156894D01*
X3049132Y-2451536D02*
G01*
X3451537Y-2049131D01*
X2941369Y-2451536D02*
G01*
X3451537Y-1941368D01*
X2833605Y-2451536D02*
G01*
X3451537Y-1833605D01*
X2725842Y-2451536D02*
G01*
X3451537Y-1725842D01*
X2618079Y-2451536D02*
G01*
X3451537Y-1618079D01*
X2510316Y-2451536D02*
G01*
X3451537Y-1510316D01*
X2402553Y-2451536D02*
G01*
X3451537Y-1402552D01*
X2294790Y-2451536D02*
G01*
X3451537Y-1294789D01*
X2187027Y-2451536D02*
G01*
X3451537Y-1187026D01*
X2079264Y-2451536D02*
G01*
X3451537Y-1079263D01*
X1971501Y-2451536D02*
G01*
X3451537Y-971500D01*
X1863738Y-2451536D02*
G01*
X3451537Y-863737D01*
X1755975Y-2451536D02*
G01*
X3451537Y-755974D01*
X1648212Y-2451536D02*
G01*
X3451537Y-648211D01*
X1540449Y-2451536D02*
G01*
X1705782Y-2286203D01*
X1829003Y-2162982D02*
G01*
X3451537Y-540448D01*
X1432685Y-2451536D02*
G01*
X1602685Y-2281536D01*
X1824336Y-2059885D02*
G01*
X3451537Y-432685D01*
X1324922Y-2451536D02*
G01*
X1502854Y-2273605D01*
X1562015Y-2214444D02*
G01*
X1574596Y-2201863D01*
X1744663Y-2031796D02*
G01*
X3451537Y-324922D01*
X1217159Y-2451536D02*
G01*
X1394327Y-2274369D01*
X1563015Y-2105681D02*
G01*
X1574596Y-2094099D01*
X1636899Y-2031796D02*
G01*
X3451537Y-217159D01*
X1109396Y-2451536D02*
G01*
X1338009Y-2222924D01*
X1511684Y-2049248D02*
G01*
X3433124Y-127809D01*
X1001633Y-2451536D02*
G01*
X1324307Y-2128862D01*
X1417447Y-2035723D02*
G01*
X3381009Y-72161D01*
X893870Y-2451536D02*
G01*
X3296944Y-48463D01*
X786107Y-2451536D02*
G01*
X3189181Y-48463D01*
X678344Y-2451536D02*
G01*
X3081418Y-48463D01*
X570581Y-2451536D02*
G01*
X2973654Y-48463D01*
X462818Y-2451536D02*
G01*
X2865891Y-48463D01*
X355055Y-2451536D02*
G01*
X2758128Y-48463D01*
X247292Y-2451536D02*
G01*
X1391687Y-1307141D01*
X1472241Y-1226587D02*
G01*
X2650365Y-48463D01*
X148722Y-2442343D02*
G01*
X1308402Y-1282663D01*
X1440228Y-1150837D02*
G01*
X2542602Y-48463D01*
X84949Y-2398353D02*
G01*
X1228526Y-1254776D01*
X1341216Y-1142086D02*
G01*
X2434839Y-48463D01*
X50727Y-2324812D02*
G01*
X1174644Y-1200895D01*
X1282663Y-1092876D02*
G01*
X2327076Y-48463D01*
X48463Y-2219313D02*
G01*
X1155736Y-1112039D01*
X1282663Y-985113D02*
G01*
X2219313Y-48463D01*
X48463Y-2111550D02*
G01*
X1155736Y-1004276D01*
X1282663Y-877350D02*
G01*
X2111550Y-48463D01*
X48463Y-2003787D02*
G01*
X1155736Y-896513D01*
X1290859Y-761391D02*
G01*
X2003787Y-48463D01*
X48463Y-1896024D02*
G01*
X335132Y-1609355D01*
X428022Y-1516465D02*
G01*
X1124457Y-820030D01*
X1239130Y-705357D02*
G01*
X1896024Y-48463D01*
X48463Y-1788261D02*
G01*
X240972Y-1595752D01*
X414606Y-1422117D02*
G01*
X1788261Y-48463D01*
X48463Y-1680498D02*
G01*
X189475Y-1539485D01*
X358226Y-1370735D02*
G01*
X1680498Y-48463D01*
X48463Y-1572734D02*
G01*
X190001Y-1431196D01*
X249654Y-1371544D02*
G01*
X267826Y-1353371D01*
X426355Y-1194842D02*
G01*
X1572734Y-48463D01*
X48463Y-1464971D02*
G01*
X204122Y-1309312D01*
X382236Y-1131198D02*
G01*
X1464971Y-48463D01*
X48463Y-1357208D02*
G01*
X177847Y-1227824D01*
X300718Y-1104953D02*
G01*
X300819Y-1104852D01*
X431752Y-973920D02*
G01*
X1357208Y-48463D01*
X48463Y-1249445D02*
G01*
X222954Y-1074954D01*
X401978Y-895930D02*
G01*
X1249445Y-48463D01*
X48463Y-1141682D02*
G01*
X181598Y-1008547D01*
X335610Y-854536D02*
G01*
X346218Y-843927D01*
X425016Y-765129D02*
G01*
X1141682Y-48463D01*
X48463Y-1033919D02*
G01*
X245895Y-836487D01*
X417323Y-665059D02*
G01*
X1033919Y-48463D01*
X48463Y-926156D02*
G01*
X192135Y-782484D01*
X363434Y-611185D02*
G01*
X926156Y-48463D01*
X48463Y-818393D02*
G01*
X184843Y-682013D01*
X262793Y-604063D02*
G01*
X818393Y-48463D01*
X48463Y-710630D02*
G01*
X710630Y-48463D01*
X48463Y-602867D02*
G01*
X602867Y-48463D01*
X48463Y-495104D02*
G01*
X495104Y-48463D01*
X48463Y-387341D02*
G01*
X387341Y-48463D01*
X48463Y-279578D02*
G01*
X279578Y-48463D01*
X51965Y-168312D02*
G01*
X168312Y-51965D01*
D20*
G01*
X1701800Y-2159000D03*
D21*
G01*
X1447800Y-2159000D03*
G01*
X1193800Y-2159000D03*
G01*
X939800Y-2159000D03*
G01*
X304800Y-1485900D03*
G01*
X304800Y-1231900D03*
G01*
X304800Y-977900D03*
G01*
X304800Y-723900D03*
D20*
G01*
X304800Y-469900D03*
D14*
G01*
X1384300Y-1219200D03*
G01*
X1206500Y-787400D03*
G01*
X2082800Y-2120900D03*
G01*
X1866900Y-1371600D03*
G01*
X838200Y-1524000D03*
G01*
X2794000Y-1638300D03*
M02*
