G04 Layer: TopPasteMaskLayer*
G04 EasyEDA v6.4.25, 2021-11-17T17:00:31+08:00*
G04 7b095086feb547ebadca5fbbb004fff0,8eccfb12f3aa458fbbe36a5a93572a72,10*
G04 Gerber Generator version 0.2*
G04 Scale: 100 percent, Rotated: No, Reflected: No *
G04 Dimensions in millimeters *
G04 leading zeros omitted , absolute positions ,4 integer and 5 decimal *
%FSLAX45Y45*%
%MOMM*%

%ADD13C,0.6300*%

%LPD*%
G36*
X1083513Y-1414881D02*
G01*
X1078484Y-1419910D01*
X1078484Y-1547876D01*
X1083513Y-1552905D01*
X1198473Y-1552905D01*
X1203502Y-1547876D01*
X1202994Y-1505915D01*
X1159002Y-1505915D01*
X1159002Y-1460906D01*
X1204010Y-1460906D01*
X1203502Y-1419910D01*
X1198473Y-1414881D01*
G37*
G36*
X1298498Y-1414881D02*
G01*
X1293520Y-1419910D01*
X1293977Y-1460906D01*
X1338021Y-1460906D01*
X1338021Y-1505915D01*
X1293520Y-1505915D01*
X1293520Y-1547876D01*
X1298498Y-1552905D01*
X1413510Y-1552905D01*
X1418488Y-1547876D01*
X1418488Y-1419910D01*
X1413510Y-1414881D01*
G37*
G36*
X2451506Y-1529283D02*
G01*
X2410510Y-1529791D01*
X2405481Y-1534820D01*
X2405481Y-1649780D01*
X2410510Y-1654810D01*
X2538476Y-1654810D01*
X2543505Y-1649780D01*
X2543505Y-1534820D01*
X2538476Y-1529791D01*
X2496515Y-1530299D01*
X2496515Y-1574292D01*
X2451506Y-1574292D01*
G37*
G36*
X2410510Y-1314805D02*
G01*
X2405481Y-1319784D01*
X2405481Y-1434795D01*
X2410510Y-1439773D01*
X2451506Y-1439316D01*
X2451506Y-1395272D01*
X2496515Y-1395272D01*
X2496515Y-1439773D01*
X2538476Y-1439773D01*
X2543505Y-1434795D01*
X2543505Y-1319784D01*
X2538476Y-1314805D01*
G37*
G36*
X2120696Y-1310081D02*
G01*
X2110689Y-1320038D01*
X2110689Y-1448562D01*
X2120696Y-1458569D01*
X2157730Y-1458569D01*
X2167737Y-1448562D01*
X2167737Y-1418082D01*
X2177745Y-1408074D01*
X2216454Y-1408074D01*
X2226462Y-1418082D01*
X2226462Y-1448562D01*
X2236470Y-1458569D01*
X2273503Y-1458569D01*
X2283510Y-1448562D01*
X2283510Y-1320038D01*
X2273503Y-1310081D01*
G37*
G36*
X2120696Y-1628546D02*
G01*
X2110689Y-1638554D01*
X2110689Y-1767078D01*
X2120696Y-1777034D01*
X2273503Y-1777034D01*
X2283510Y-1767078D01*
X2283510Y-1638554D01*
X2273503Y-1628546D01*
X2236470Y-1628546D01*
X2226462Y-1638554D01*
X2226462Y-1669034D01*
X2216454Y-1679041D01*
X2177745Y-1679041D01*
X2167737Y-1669034D01*
X2167737Y-1638554D01*
X2157730Y-1628546D01*
G37*
G36*
X1038148Y-1134160D02*
G01*
X1028192Y-1144168D01*
X1028192Y-1294231D01*
X1038148Y-1304239D01*
X1138936Y-1304239D01*
X1148943Y-1294231D01*
X1148943Y-1258112D01*
X1138936Y-1248105D01*
X1117854Y-1248105D01*
X1107846Y-1238097D01*
X1107846Y-1200302D01*
X1117854Y-1190294D01*
X1138936Y-1190294D01*
X1148943Y-1180287D01*
X1148943Y-1144168D01*
X1138936Y-1134160D01*
G37*
G36*
X1333906Y-1134160D02*
G01*
X1323898Y-1144168D01*
X1323898Y-1180287D01*
X1333906Y-1190294D01*
X1354988Y-1190294D01*
X1364996Y-1200302D01*
X1364996Y-1238097D01*
X1354988Y-1248105D01*
X1333906Y-1248105D01*
X1323898Y-1258112D01*
X1323898Y-1294231D01*
X1333906Y-1304239D01*
X1434693Y-1304239D01*
X1444650Y-1294231D01*
X1444650Y-1144168D01*
X1434693Y-1134160D01*
G37*
G36*
X2960268Y-1157935D02*
G01*
X2950260Y-1167942D01*
X2950260Y-1268730D01*
X2960268Y-1278686D01*
X3110331Y-1278686D01*
X3120339Y-1268730D01*
X3120339Y-1167942D01*
X3110331Y-1157935D01*
X3074212Y-1157935D01*
X3064205Y-1167942D01*
X3064205Y-1189024D01*
X3054197Y-1199032D01*
X3016402Y-1199032D01*
X3006394Y-1189024D01*
X3006394Y-1167942D01*
X2996387Y-1157935D01*
G37*
G36*
X2960268Y-862228D02*
G01*
X2950260Y-872185D01*
X2950260Y-972972D01*
X2960268Y-982980D01*
X2996387Y-982980D01*
X3006394Y-972972D01*
X3006394Y-951890D01*
X3016402Y-941882D01*
X3054197Y-941882D01*
X3064205Y-951890D01*
X3064205Y-972972D01*
X3074212Y-982980D01*
X3110331Y-982980D01*
X3120339Y-972972D01*
X3120339Y-872185D01*
X3110331Y-862228D01*
G37*
G36*
X2960268Y-684377D02*
G01*
X2950260Y-694385D01*
X2950260Y-795172D01*
X2960268Y-805129D01*
X3110331Y-805129D01*
X3120339Y-795172D01*
X3120339Y-694385D01*
X3110331Y-684377D01*
X3074212Y-684377D01*
X3064205Y-694385D01*
X3064205Y-715467D01*
X3054197Y-725474D01*
X3016402Y-725474D01*
X3006394Y-715467D01*
X3006394Y-694385D01*
X2996387Y-684377D01*
G37*
G36*
X2960268Y-388670D02*
G01*
X2950260Y-398627D01*
X2950260Y-499414D01*
X2960268Y-509422D01*
X2996387Y-509422D01*
X3006394Y-499414D01*
X3006394Y-478332D01*
X3016402Y-468325D01*
X3054197Y-468325D01*
X3064205Y-478332D01*
X3064205Y-499414D01*
X3074212Y-509422D01*
X3110331Y-509422D01*
X3120339Y-499414D01*
X3120339Y-398627D01*
X3110331Y-388670D01*
G37*
D13*
X2213099Y-990600D02*
G01*
X2336599Y-990600D01*
X2213099Y-863600D02*
G01*
X2336599Y-863600D01*
X2213099Y-736600D02*
G01*
X2336599Y-736600D01*
X2213099Y-609600D02*
G01*
X2336599Y-609600D01*
X1676600Y-990600D02*
G01*
X1800100Y-990600D01*
X1676600Y-863600D02*
G01*
X1800100Y-863600D01*
X1676600Y-736600D02*
G01*
X1800100Y-736600D01*
X1676600Y-609600D02*
G01*
X1800100Y-609600D01*
M02*
