G04 Layer: BottomSilkLayer*
G04 EasyEDA v6.4.25, 2021-11-17T17:00:31+08:00*
G04 7b095086feb547ebadca5fbbb004fff0,8eccfb12f3aa458fbbe36a5a93572a72,10*
G04 Gerber Generator version 0.2*
G04 Scale: 100 percent, Rotated: No, Reflected: No *
G04 Dimensions in millimeters *
G04 leading zeros omitted , absolute positions ,4 integer and 5 decimal *
%FSLAX45Y45*%
%MOMM*%

%ADD10C,0.2540*%

%LPD*%
G36*
X2775458Y-511556D02*
G01*
X2775458Y-660400D01*
X2792984Y-660400D01*
X2848864Y-564134D01*
X2865120Y-533654D01*
X2866136Y-533654D01*
X2864713Y-555955D01*
X2864256Y-567334D01*
X2864104Y-578866D01*
X2864104Y-660400D01*
X2879852Y-660400D01*
X2879852Y-511556D01*
X2862580Y-511556D01*
X2806192Y-608076D01*
X2790190Y-638556D01*
X2789174Y-638556D01*
X2790698Y-615391D01*
X2791256Y-603656D01*
X2791460Y-592074D01*
X2791460Y-511556D01*
G37*
G36*
X2921254Y-511556D02*
G01*
X2921254Y-660400D01*
X2938272Y-660400D01*
X2938272Y-511556D01*
G37*
G36*
X3092704Y-511556D02*
G01*
X3092704Y-660400D01*
X3110230Y-660400D01*
X3166110Y-564134D01*
X3182366Y-533654D01*
X3183382Y-533654D01*
X3182061Y-555955D01*
X3181400Y-573074D01*
X3181350Y-660400D01*
X3197352Y-660400D01*
X3197352Y-511556D01*
X3180080Y-511556D01*
X3123692Y-608076D01*
X3107690Y-638556D01*
X3106674Y-638556D01*
X3108198Y-615391D01*
X3108756Y-603656D01*
X3108960Y-592074D01*
X3108960Y-511556D01*
G37*
G36*
X3269742Y-511556D02*
G01*
X3239336Y-600202D01*
X3255772Y-600202D01*
X3269538Y-557326D01*
X3278886Y-525780D01*
X3279648Y-525780D01*
X3287166Y-551230D01*
X3292906Y-569823D01*
X3302762Y-600202D01*
X3239336Y-600202D01*
X3218688Y-660400D01*
X3236722Y-660400D01*
X3251453Y-613410D01*
X3307079Y-613410D01*
X3322320Y-660400D01*
X3339084Y-660400D01*
X3288284Y-511556D01*
G37*
G36*
X2961640Y-676910D02*
G01*
X2961640Y-688340D01*
X3069336Y-688340D01*
X3069336Y-676910D01*
G37*
G36*
X2816860Y-879856D02*
G01*
X2816860Y-1028700D01*
X2832608Y-1028700D01*
X2832557Y-937869D01*
X2831541Y-915669D01*
X2830576Y-899668D01*
X2831338Y-899668D01*
X2843022Y-933450D01*
X2872232Y-1013460D01*
X2883662Y-1013460D01*
X2912872Y-933450D01*
X2924810Y-899668D01*
X2925572Y-899668D01*
X2923743Y-932586D01*
X2923540Y-942848D01*
X2923540Y-1028700D01*
X2938780Y-1028700D01*
X2938780Y-879856D01*
X2917952Y-879856D01*
X2888742Y-961136D01*
X2878074Y-992886D01*
X2877058Y-992886D01*
X2866644Y-961136D01*
X2837688Y-879856D01*
G37*
G36*
X2965450Y-879856D02*
G01*
X2996692Y-1028700D01*
X3016504Y-1028700D01*
X3040380Y-935990D01*
X3047746Y-902208D01*
X3048508Y-902208D01*
X3056128Y-935990D01*
X3079496Y-1028700D01*
X3099054Y-1028700D01*
X3131312Y-879856D01*
X3114040Y-879856D01*
X3094126Y-980541D01*
X3088386Y-1010919D01*
X3087624Y-1010919D01*
X3076702Y-962660D01*
X3055620Y-879856D01*
X3039872Y-879856D01*
X3018536Y-962660D01*
X3007614Y-1010919D01*
X3006598Y-1010919D01*
X3000197Y-974547D01*
X2981452Y-879856D01*
G37*
G36*
X3201924Y-879856D02*
G01*
X3195777Y-880008D01*
X3189935Y-880414D01*
X3184347Y-881075D01*
X3179114Y-882091D01*
X3174238Y-883412D01*
X3169666Y-885088D01*
X3165500Y-887069D01*
X3161639Y-889457D01*
X3158236Y-892200D01*
X3155238Y-895299D01*
X3152648Y-898855D01*
X3150514Y-902766D01*
X3148787Y-907186D01*
X3147568Y-912012D01*
X3146806Y-917295D01*
X3146552Y-923036D01*
X3163316Y-923036D01*
X3163620Y-917752D01*
X3164484Y-913079D01*
X3165906Y-909015D01*
X3167888Y-905459D01*
X3170478Y-902462D01*
X3173577Y-899921D01*
X3177336Y-897839D01*
X3181604Y-896264D01*
X3186480Y-895045D01*
X3191916Y-894181D01*
X3197910Y-893724D01*
X3226308Y-893571D01*
X3226308Y-954786D01*
X3203448Y-954786D01*
X3196945Y-954582D01*
X3191052Y-953973D01*
X3185718Y-952957D01*
X3180943Y-951484D01*
X3176778Y-949553D01*
X3173171Y-947216D01*
X3170174Y-944371D01*
X3167684Y-941069D01*
X3165754Y-937310D01*
X3164382Y-933043D01*
X3163570Y-928319D01*
X3163316Y-923036D01*
X3146552Y-923036D01*
X3146806Y-928674D01*
X3147568Y-933907D01*
X3148787Y-938733D01*
X3150463Y-943203D01*
X3152546Y-947318D01*
X3155137Y-951026D01*
X3158083Y-954379D01*
X3161487Y-957376D01*
X3165246Y-960018D01*
X3169361Y-962304D01*
X3173882Y-964184D01*
X3178708Y-965758D01*
X3183839Y-966978D01*
X3189325Y-967841D01*
X3195116Y-968349D01*
X3226308Y-968502D01*
X3226308Y-1028700D01*
X3243072Y-1028700D01*
X3243072Y-879856D01*
G37*
G36*
X748538Y-556615D02*
G01*
X743102Y-556869D01*
X737819Y-557479D01*
X732739Y-558546D01*
X727862Y-560019D01*
X723138Y-561898D01*
X718667Y-564184D01*
X714451Y-566826D01*
X710438Y-569874D01*
X706729Y-573278D01*
X703224Y-577037D01*
X700024Y-581202D01*
X697128Y-585673D01*
X694486Y-590499D01*
X692200Y-595630D01*
X690219Y-601116D01*
X688543Y-606907D01*
X687273Y-613003D01*
X686308Y-619404D01*
X685749Y-626110D01*
X685546Y-633120D01*
X702818Y-633120D01*
X703021Y-626110D01*
X703681Y-619506D01*
X704697Y-613257D01*
X706120Y-607364D01*
X707898Y-601878D01*
X710031Y-596798D01*
X712571Y-592175D01*
X715365Y-587959D01*
X718566Y-584149D01*
X722020Y-580847D01*
X725779Y-578002D01*
X729843Y-575665D01*
X734110Y-573786D01*
X738682Y-572465D01*
X743508Y-571652D01*
X748538Y-571347D01*
X753567Y-571652D01*
X758393Y-572465D01*
X762965Y-573786D01*
X767232Y-575665D01*
X771296Y-578002D01*
X775055Y-580847D01*
X778510Y-584149D01*
X781710Y-587959D01*
X784504Y-592175D01*
X787044Y-596798D01*
X789178Y-601878D01*
X790956Y-607364D01*
X792378Y-613257D01*
X793394Y-619506D01*
X794054Y-626110D01*
X794258Y-633120D01*
X794054Y-640080D01*
X793394Y-646734D01*
X792378Y-653034D01*
X790956Y-658977D01*
X789178Y-664514D01*
X787044Y-669696D01*
X784504Y-674420D01*
X781710Y-678738D01*
X778510Y-682599D01*
X775055Y-686003D01*
X771296Y-688949D01*
X767232Y-691388D01*
X762965Y-693318D01*
X758393Y-694690D01*
X753567Y-695553D01*
X748538Y-695807D01*
X743508Y-695553D01*
X738682Y-694690D01*
X734110Y-693318D01*
X729843Y-691388D01*
X725779Y-688949D01*
X722020Y-686003D01*
X718566Y-682599D01*
X715365Y-678738D01*
X712571Y-674420D01*
X710031Y-669696D01*
X707898Y-664514D01*
X706120Y-658977D01*
X704697Y-653034D01*
X703681Y-646734D01*
X703021Y-640080D01*
X702818Y-633120D01*
X685546Y-633120D01*
X685749Y-640080D01*
X686308Y-646785D01*
X687273Y-653237D01*
X688543Y-659384D01*
X690219Y-665226D01*
X692200Y-670763D01*
X694486Y-675995D01*
X697128Y-680872D01*
X700024Y-685444D01*
X703224Y-689660D01*
X706729Y-693470D01*
X710438Y-696976D01*
X714451Y-700074D01*
X718667Y-702818D01*
X723138Y-705154D01*
X727862Y-707085D01*
X732739Y-708609D01*
X737819Y-709676D01*
X743102Y-710336D01*
X748538Y-710539D01*
X753973Y-710336D01*
X759256Y-709676D01*
X764336Y-708609D01*
X769213Y-707085D01*
X773938Y-705154D01*
X778408Y-702818D01*
X782624Y-700074D01*
X786638Y-696976D01*
X790346Y-693470D01*
X793851Y-689660D01*
X797052Y-685444D01*
X799947Y-680872D01*
X802589Y-675995D01*
X804875Y-670763D01*
X806856Y-665226D01*
X808532Y-659384D01*
X809802Y-653237D01*
X810768Y-646785D01*
X811326Y-640080D01*
X811530Y-633120D01*
X811326Y-626110D01*
X810768Y-619404D01*
X809802Y-613003D01*
X808532Y-606907D01*
X806856Y-601116D01*
X804875Y-595630D01*
X802589Y-590499D01*
X799947Y-585673D01*
X797052Y-581202D01*
X793851Y-577037D01*
X790346Y-573278D01*
X786638Y-569874D01*
X782624Y-566826D01*
X778408Y-564184D01*
X773938Y-561898D01*
X769213Y-560019D01*
X764336Y-558546D01*
X759256Y-557479D01*
X753973Y-556869D01*
G37*
G36*
X868934Y-556615D02*
G01*
X862380Y-557022D01*
X856183Y-558139D01*
X850442Y-559866D01*
X845108Y-562152D01*
X840232Y-564845D01*
X835863Y-567893D01*
X831951Y-571195D01*
X828548Y-574649D01*
X837946Y-585571D01*
X844143Y-579831D01*
X851306Y-575360D01*
X859485Y-572414D01*
X868680Y-571347D01*
X874014Y-571652D01*
X879144Y-572465D01*
X883970Y-573786D01*
X888542Y-575665D01*
X892810Y-578002D01*
X896772Y-580847D01*
X900430Y-584200D01*
X903782Y-587959D01*
X906729Y-592226D01*
X909370Y-596900D01*
X911606Y-601980D01*
X913485Y-607466D01*
X915009Y-613410D01*
X916076Y-619658D01*
X916736Y-626313D01*
X916940Y-633323D01*
X916736Y-640384D01*
X916076Y-647039D01*
X915060Y-653338D01*
X913637Y-659282D01*
X911809Y-664819D01*
X909624Y-669950D01*
X907034Y-674674D01*
X904138Y-678992D01*
X900887Y-682802D01*
X897331Y-686155D01*
X893419Y-689051D01*
X889203Y-691438D01*
X884682Y-693369D01*
X879856Y-694740D01*
X874776Y-695553D01*
X869442Y-695807D01*
X864158Y-695553D01*
X859231Y-694690D01*
X854506Y-693318D01*
X850087Y-691438D01*
X845819Y-689000D01*
X841806Y-686104D01*
X837895Y-682701D01*
X834136Y-678789D01*
X824737Y-689254D01*
X829259Y-694080D01*
X834034Y-698347D01*
X839165Y-702005D01*
X844600Y-705053D01*
X850392Y-707440D01*
X856589Y-709168D01*
X863193Y-710234D01*
X870203Y-710539D01*
X875639Y-710336D01*
X880922Y-709726D01*
X886053Y-708660D01*
X890981Y-707186D01*
X895756Y-705307D01*
X900277Y-703072D01*
X904595Y-700430D01*
X908659Y-697382D01*
X912469Y-693978D01*
X916025Y-690168D01*
X919276Y-686054D01*
X922274Y-681532D01*
X924966Y-676706D01*
X927353Y-671525D01*
X929386Y-665988D01*
X931113Y-660146D01*
X932434Y-653948D01*
X933399Y-647496D01*
X934008Y-640689D01*
X934212Y-633628D01*
X934008Y-626567D01*
X933399Y-619861D01*
X932383Y-613410D01*
X931011Y-607263D01*
X929284Y-601421D01*
X927201Y-595934D01*
X924814Y-590753D01*
X922070Y-585876D01*
X919022Y-581355D01*
X915669Y-577189D01*
X912063Y-573430D01*
X908151Y-569976D01*
X903986Y-566928D01*
X899617Y-564235D01*
X894994Y-561949D01*
X890168Y-560070D01*
X885139Y-558596D01*
X879906Y-557530D01*
X874471Y-556869D01*
G37*
G36*
X611632Y-559155D02*
G01*
X605485Y-559308D01*
X599643Y-559714D01*
X594106Y-560425D01*
X588873Y-561441D01*
X583996Y-562762D01*
X579475Y-564388D01*
X575310Y-566420D01*
X571500Y-568756D01*
X568096Y-571500D01*
X565099Y-574649D01*
X562559Y-578154D01*
X560425Y-582117D01*
X558749Y-586486D01*
X557530Y-591312D01*
X556768Y-596595D01*
X556514Y-602386D01*
X573024Y-602386D01*
X573328Y-597103D01*
X574192Y-592429D01*
X575614Y-588314D01*
X577646Y-584809D01*
X580237Y-581761D01*
X583387Y-579221D01*
X587146Y-577189D01*
X591413Y-575564D01*
X596290Y-574344D01*
X601675Y-573532D01*
X607669Y-573074D01*
X614172Y-572871D01*
X636016Y-572871D01*
X636016Y-634136D01*
X613410Y-634136D01*
X606856Y-633933D01*
X600913Y-633272D01*
X595528Y-632256D01*
X590753Y-630783D01*
X586536Y-628904D01*
X582930Y-626516D01*
X579882Y-623722D01*
X577392Y-620420D01*
X575462Y-616661D01*
X574090Y-612394D01*
X573278Y-607618D01*
X573024Y-602386D01*
X556514Y-602386D01*
X556768Y-607974D01*
X557479Y-613206D01*
X558698Y-618083D01*
X560374Y-622554D01*
X562457Y-626618D01*
X564997Y-630377D01*
X567944Y-633730D01*
X571296Y-636727D01*
X575056Y-639318D01*
X579170Y-641604D01*
X583641Y-643534D01*
X588467Y-645058D01*
X593598Y-646277D01*
X599033Y-647141D01*
X604824Y-647649D01*
X610870Y-647852D01*
X636016Y-647852D01*
X636016Y-707999D01*
X653034Y-707999D01*
X653034Y-559155D01*
G37*
G36*
X1444244Y-1669796D02*
G01*
X1444244Y-1823720D01*
X1443228Y-1823720D01*
X1376934Y-1741424D01*
X1351534Y-1741424D01*
X1401318Y-1802130D01*
X1344422Y-1892300D01*
X1369314Y-1892300D01*
X1414780Y-1817624D01*
X1444244Y-1852168D01*
X1444244Y-1892300D01*
X1466596Y-1892300D01*
X1466596Y-1669796D01*
G37*
G36*
X1984502Y-1669796D02*
G01*
X1984502Y-1731772D01*
X1985772Y-1759204D01*
X1980234Y-1754835D01*
X1974494Y-1750771D01*
X1968550Y-1747113D01*
X1962454Y-1743913D01*
X1956206Y-1741322D01*
X1949856Y-1739290D01*
X1943455Y-1738071D01*
X1937004Y-1737614D01*
X1931212Y-1737817D01*
X1925726Y-1738528D01*
X1920544Y-1739646D01*
X1915617Y-1741170D01*
X1910994Y-1743100D01*
X1906625Y-1745437D01*
X1902561Y-1748180D01*
X1898802Y-1751279D01*
X1895348Y-1754784D01*
X1892147Y-1758645D01*
X1889252Y-1762810D01*
X1886661Y-1767332D01*
X1884375Y-1772208D01*
X1882343Y-1777390D01*
X1880666Y-1782825D01*
X1879295Y-1788617D01*
X1878228Y-1794611D01*
X1877415Y-1800961D01*
X1876958Y-1807514D01*
X1876814Y-1814575D01*
X1900428Y-1814575D01*
X1900580Y-1808327D01*
X1900986Y-1802333D01*
X1901698Y-1796592D01*
X1902714Y-1791157D01*
X1904085Y-1786077D01*
X1905711Y-1781302D01*
X1907692Y-1776882D01*
X1910029Y-1772869D01*
X1912721Y-1769211D01*
X1915769Y-1766011D01*
X1919224Y-1763217D01*
X1923034Y-1760931D01*
X1927250Y-1759102D01*
X1931873Y-1757781D01*
X1936902Y-1756918D01*
X1942338Y-1756664D01*
X1947316Y-1757019D01*
X1952396Y-1758086D01*
X1957527Y-1759813D01*
X1962759Y-1762252D01*
X1968042Y-1765350D01*
X1973427Y-1769110D01*
X1978914Y-1773478D01*
X1984502Y-1778507D01*
X1984502Y-1860296D01*
X1979269Y-1864512D01*
X1974037Y-1867966D01*
X1968906Y-1870811D01*
X1963877Y-1872996D01*
X1959000Y-1874621D01*
X1954377Y-1875739D01*
X1949957Y-1876348D01*
X1945893Y-1876552D01*
X1941068Y-1876298D01*
X1936445Y-1875485D01*
X1931974Y-1874113D01*
X1927758Y-1872284D01*
X1923745Y-1869897D01*
X1919986Y-1867052D01*
X1916531Y-1863750D01*
X1913331Y-1859940D01*
X1910486Y-1855724D01*
X1907895Y-1851050D01*
X1905711Y-1845970D01*
X1903831Y-1840433D01*
X1902358Y-1834540D01*
X1901291Y-1828241D01*
X1900631Y-1821586D01*
X1900428Y-1814575D01*
X1876814Y-1814575D01*
X1877060Y-1821942D01*
X1877720Y-1829206D01*
X1878787Y-1836115D01*
X1880311Y-1842719D01*
X1882190Y-1848916D01*
X1884425Y-1854758D01*
X1887016Y-1860296D01*
X1889963Y-1865426D01*
X1893163Y-1870151D01*
X1896668Y-1874520D01*
X1900428Y-1878482D01*
X1904390Y-1882089D01*
X1908606Y-1885238D01*
X1913026Y-1888032D01*
X1917649Y-1890420D01*
X1922373Y-1892350D01*
X1927301Y-1893874D01*
X1932279Y-1894992D01*
X1937410Y-1895652D01*
X1942592Y-1895856D01*
X1947925Y-1895551D01*
X1953412Y-1894535D01*
X1959000Y-1892960D01*
X1964639Y-1890775D01*
X1970227Y-1888032D01*
X1975713Y-1884730D01*
X1981098Y-1880870D01*
X1986280Y-1876552D01*
X1986788Y-1876552D01*
X1989328Y-1892300D01*
X2007107Y-1892300D01*
X2007107Y-1669796D01*
G37*
G36*
X2059939Y-1669796D02*
G01*
X2059939Y-1855216D01*
X2082546Y-1855216D01*
X2082546Y-1773428D01*
X2087625Y-1769262D01*
X2092502Y-1765757D01*
X2097328Y-1762861D01*
X2102053Y-1760575D01*
X2106726Y-1758797D01*
X2111502Y-1757629D01*
X2116277Y-1756918D01*
X2121154Y-1756664D01*
X2125878Y-1756968D01*
X2130450Y-1757781D01*
X2134870Y-1759204D01*
X2139086Y-1761083D01*
X2143048Y-1763522D01*
X2146808Y-1766417D01*
X2150313Y-1769770D01*
X2153513Y-1773529D01*
X2156409Y-1777695D01*
X2159000Y-1782318D01*
X2161235Y-1787245D01*
X2163114Y-1792579D01*
X2164638Y-1798218D01*
X2165705Y-1804162D01*
X2166366Y-1810359D01*
X2166620Y-1816862D01*
X2166416Y-1823618D01*
X2165908Y-1830070D01*
X2164994Y-1836166D01*
X2163775Y-1841855D01*
X2162200Y-1847138D01*
X2160270Y-1852066D01*
X2157984Y-1856536D01*
X2155393Y-1860600D01*
X2152497Y-1864258D01*
X2149246Y-1867458D01*
X2145741Y-1870202D01*
X2141880Y-1872437D01*
X2137714Y-1874215D01*
X2133244Y-1875485D01*
X2128469Y-1876298D01*
X2123440Y-1876552D01*
X2118055Y-1876196D01*
X2112822Y-1875231D01*
X2107692Y-1873554D01*
X2102612Y-1871218D01*
X2097582Y-1868220D01*
X2092604Y-1864563D01*
X2087575Y-1860194D01*
X2082546Y-1855216D01*
X2059939Y-1855216D01*
X2059939Y-1892300D01*
X2078736Y-1892300D01*
X2080768Y-1874012D01*
X2081530Y-1874012D01*
X2086203Y-1878431D01*
X2091283Y-1882546D01*
X2096668Y-1886305D01*
X2102408Y-1889506D01*
X2108454Y-1892147D01*
X2114804Y-1894179D01*
X2121408Y-1895398D01*
X2128266Y-1895856D01*
X2133854Y-1895652D01*
X2139188Y-1894992D01*
X2144369Y-1893976D01*
X2149246Y-1892503D01*
X2153970Y-1890623D01*
X2158390Y-1888337D01*
X2162606Y-1885696D01*
X2166518Y-1882597D01*
X2170176Y-1879142D01*
X2173579Y-1875332D01*
X2176678Y-1871116D01*
X2179472Y-1866493D01*
X2182012Y-1861566D01*
X2184196Y-1856232D01*
X2186076Y-1850542D01*
X2187651Y-1844497D01*
X2188870Y-1838096D01*
X2189784Y-1831339D01*
X2190292Y-1824278D01*
X2190496Y-1816862D01*
X2190242Y-1809699D01*
X2189581Y-1802841D01*
X2188514Y-1796288D01*
X2186990Y-1789988D01*
X2185111Y-1783994D01*
X2182876Y-1778355D01*
X2180285Y-1773021D01*
X2177338Y-1767992D01*
X2174138Y-1763369D01*
X2170633Y-1759051D01*
X2166874Y-1755089D01*
X2162911Y-1751533D01*
X2158695Y-1748332D01*
X2154275Y-1745538D01*
X2149652Y-1743151D01*
X2144928Y-1741220D01*
X2140000Y-1739646D01*
X2135022Y-1738528D01*
X2129891Y-1737868D01*
X2124710Y-1737614D01*
X2118309Y-1737918D01*
X2112365Y-1738833D01*
X2106828Y-1740306D01*
X2101596Y-1742287D01*
X2096516Y-1744878D01*
X2091588Y-1747926D01*
X2086610Y-1751431D01*
X2081530Y-1755393D01*
X2082546Y-1729232D01*
X2082546Y-1669796D01*
G37*
G36*
X1574038Y-1684020D02*
G01*
X1567840Y-1684223D01*
X1561896Y-1684883D01*
X1556207Y-1685950D01*
X1550822Y-1687423D01*
X1545691Y-1689303D01*
X1540916Y-1691589D01*
X1536446Y-1694281D01*
X1532382Y-1697329D01*
X1528724Y-1700784D01*
X1525422Y-1704593D01*
X1522628Y-1708759D01*
X1520240Y-1713280D01*
X1518361Y-1718157D01*
X1516989Y-1723389D01*
X1516176Y-1728927D01*
X1515872Y-1734820D01*
X1516176Y-1740966D01*
X1517091Y-1746757D01*
X1518564Y-1752193D01*
X1520545Y-1757273D01*
X1523085Y-1761947D01*
X1526082Y-1766265D01*
X1529537Y-1770176D01*
X1533448Y-1773783D01*
X1537716Y-1776984D01*
X1542389Y-1779778D01*
X1547368Y-1782267D01*
X1552702Y-1784350D01*
X1552702Y-1785620D01*
X1546758Y-1787296D01*
X1541068Y-1789480D01*
X1535684Y-1792173D01*
X1530654Y-1795322D01*
X1525981Y-1799031D01*
X1521815Y-1803196D01*
X1518107Y-1807870D01*
X1514957Y-1813001D01*
X1512468Y-1818538D01*
X1510588Y-1824583D01*
X1509420Y-1831035D01*
X1509014Y-1837943D01*
X1509318Y-1844548D01*
X1510284Y-1850796D01*
X1511858Y-1856689D01*
X1514043Y-1862226D01*
X1516684Y-1867357D01*
X1519885Y-1872132D01*
X1523593Y-1876501D01*
X1527708Y-1880412D01*
X1532280Y-1883968D01*
X1537208Y-1887067D01*
X1542491Y-1889709D01*
X1548130Y-1891893D01*
X1554022Y-1893620D01*
X1560220Y-1894839D01*
X1566672Y-1895602D01*
X1573276Y-1895856D01*
X1580946Y-1895602D01*
X1588160Y-1894789D01*
X1594916Y-1893468D01*
X1601266Y-1891792D01*
X1607108Y-1889658D01*
X1612595Y-1887220D01*
X1617726Y-1884476D01*
X1622450Y-1881479D01*
X1626819Y-1878279D01*
X1630883Y-1874926D01*
X1638046Y-1867916D01*
X1626362Y-1853184D01*
X1621688Y-1857705D01*
X1616659Y-1862023D01*
X1611172Y-1866036D01*
X1605127Y-1869541D01*
X1598523Y-1872538D01*
X1591259Y-1874824D01*
X1583283Y-1876298D01*
X1574546Y-1876806D01*
X1568551Y-1876501D01*
X1562811Y-1875586D01*
X1557477Y-1874062D01*
X1552549Y-1871929D01*
X1548028Y-1869287D01*
X1543964Y-1866087D01*
X1540459Y-1862429D01*
X1537462Y-1858213D01*
X1535074Y-1853539D01*
X1533347Y-1848459D01*
X1532229Y-1842871D01*
X1531874Y-1836928D01*
X1532077Y-1832305D01*
X1532686Y-1827885D01*
X1533804Y-1823720D01*
X1535328Y-1819706D01*
X1537309Y-1815998D01*
X1539849Y-1812543D01*
X1542897Y-1809343D01*
X1546453Y-1806397D01*
X1550568Y-1803806D01*
X1555292Y-1801469D01*
X1560576Y-1799488D01*
X1566468Y-1797812D01*
X1573022Y-1796491D01*
X1580235Y-1795525D01*
X1588109Y-1794967D01*
X1596644Y-1794764D01*
X1596644Y-1776984D01*
X1586534Y-1776628D01*
X1577594Y-1775561D01*
X1569669Y-1773834D01*
X1562811Y-1771548D01*
X1556918Y-1768652D01*
X1551940Y-1765249D01*
X1547876Y-1761337D01*
X1544624Y-1757019D01*
X1542186Y-1752346D01*
X1540510Y-1747316D01*
X1539544Y-1741932D01*
X1539240Y-1736343D01*
X1539849Y-1729130D01*
X1541729Y-1722628D01*
X1544726Y-1716887D01*
X1548841Y-1712010D01*
X1554022Y-1708048D01*
X1560118Y-1705102D01*
X1567180Y-1703273D01*
X1575054Y-1702562D01*
X1581251Y-1703019D01*
X1587246Y-1704187D01*
X1592986Y-1706016D01*
X1598523Y-1708454D01*
X1603806Y-1711401D01*
X1608785Y-1714804D01*
X1613560Y-1718665D01*
X1617980Y-1722882D01*
X1630426Y-1708150D01*
X1622704Y-1701596D01*
X1614373Y-1695805D01*
X1610004Y-1693214D01*
X1605483Y-1690928D01*
X1600758Y-1688947D01*
X1595831Y-1687220D01*
X1590700Y-1685848D01*
X1585366Y-1684832D01*
X1579829Y-1684223D01*
G37*
G36*
X1727454Y-1684020D02*
G01*
X1721256Y-1684223D01*
X1715312Y-1684883D01*
X1709623Y-1685950D01*
X1704238Y-1687423D01*
X1699107Y-1689303D01*
X1694332Y-1691589D01*
X1689862Y-1694281D01*
X1685798Y-1697329D01*
X1682140Y-1700784D01*
X1678838Y-1704593D01*
X1676044Y-1708759D01*
X1673656Y-1713280D01*
X1671777Y-1718157D01*
X1670405Y-1723389D01*
X1669592Y-1728927D01*
X1669288Y-1734820D01*
X1669592Y-1740966D01*
X1670507Y-1746757D01*
X1671980Y-1752193D01*
X1673961Y-1757273D01*
X1676501Y-1761947D01*
X1679498Y-1766265D01*
X1682902Y-1770176D01*
X1686763Y-1773783D01*
X1691030Y-1776984D01*
X1695653Y-1779778D01*
X1700631Y-1782267D01*
X1705864Y-1784350D01*
X1705864Y-1785620D01*
X1699971Y-1787296D01*
X1694332Y-1789480D01*
X1688998Y-1792173D01*
X1683969Y-1795322D01*
X1679346Y-1799031D01*
X1675180Y-1803196D01*
X1671523Y-1807870D01*
X1668373Y-1813001D01*
X1665833Y-1818538D01*
X1664004Y-1824583D01*
X1662836Y-1831035D01*
X1662430Y-1837943D01*
X1662734Y-1844548D01*
X1663700Y-1850796D01*
X1665274Y-1856689D01*
X1667459Y-1862226D01*
X1670100Y-1867357D01*
X1673301Y-1872132D01*
X1677009Y-1876501D01*
X1681124Y-1880412D01*
X1685696Y-1883968D01*
X1690624Y-1887067D01*
X1695907Y-1889709D01*
X1701546Y-1891893D01*
X1707438Y-1893620D01*
X1713636Y-1894839D01*
X1720088Y-1895602D01*
X1726692Y-1895856D01*
X1734362Y-1895602D01*
X1741576Y-1894789D01*
X1748332Y-1893468D01*
X1754682Y-1891792D01*
X1760524Y-1889658D01*
X1766011Y-1887220D01*
X1771142Y-1884476D01*
X1775866Y-1881479D01*
X1780235Y-1878279D01*
X1784299Y-1874926D01*
X1791462Y-1867916D01*
X1779778Y-1853184D01*
X1775104Y-1857705D01*
X1770075Y-1862023D01*
X1764588Y-1866036D01*
X1758543Y-1869541D01*
X1751939Y-1872538D01*
X1744675Y-1874824D01*
X1736699Y-1876298D01*
X1727962Y-1876806D01*
X1721916Y-1876501D01*
X1716176Y-1875586D01*
X1710791Y-1874062D01*
X1705813Y-1871929D01*
X1701342Y-1869287D01*
X1697278Y-1866087D01*
X1693773Y-1862429D01*
X1690827Y-1858213D01*
X1688439Y-1853539D01*
X1686712Y-1848459D01*
X1685645Y-1842871D01*
X1685289Y-1836928D01*
X1685493Y-1832305D01*
X1686102Y-1827885D01*
X1687220Y-1823720D01*
X1688744Y-1819706D01*
X1690725Y-1815998D01*
X1693265Y-1812543D01*
X1696313Y-1809343D01*
X1699869Y-1806397D01*
X1703984Y-1803806D01*
X1708708Y-1801469D01*
X1713992Y-1799488D01*
X1719884Y-1797812D01*
X1726438Y-1796491D01*
X1733651Y-1795525D01*
X1741525Y-1794967D01*
X1750060Y-1794764D01*
X1750060Y-1776984D01*
X1739950Y-1776628D01*
X1731010Y-1775561D01*
X1723085Y-1773834D01*
X1716227Y-1771548D01*
X1710334Y-1768652D01*
X1705356Y-1765249D01*
X1701292Y-1761337D01*
X1698040Y-1757019D01*
X1695602Y-1752346D01*
X1693925Y-1747316D01*
X1692960Y-1741932D01*
X1692656Y-1736343D01*
X1693265Y-1729130D01*
X1695145Y-1722628D01*
X1698142Y-1716887D01*
X1702257Y-1712010D01*
X1707388Y-1708048D01*
X1713433Y-1705102D01*
X1720392Y-1703273D01*
X1728216Y-1702562D01*
X1734413Y-1703019D01*
X1740407Y-1704187D01*
X1746250Y-1706016D01*
X1751787Y-1708454D01*
X1757121Y-1711401D01*
X1762201Y-1714804D01*
X1766925Y-1718665D01*
X1771396Y-1722882D01*
X1783842Y-1708150D01*
X1776120Y-1701596D01*
X1772056Y-1698599D01*
X1763420Y-1693214D01*
X1758899Y-1690928D01*
X1754174Y-1688947D01*
X1749247Y-1687220D01*
X1744116Y-1685848D01*
X1738782Y-1684832D01*
X1733245Y-1684223D01*
G37*
G36*
X2286508Y-1684020D02*
G01*
X2280310Y-1684223D01*
X2274366Y-1684883D01*
X2268677Y-1685950D01*
X2263292Y-1687423D01*
X2258161Y-1689303D01*
X2253386Y-1691589D01*
X2248916Y-1694281D01*
X2244852Y-1697329D01*
X2241194Y-1700784D01*
X2237892Y-1704593D01*
X2235098Y-1708759D01*
X2232710Y-1713280D01*
X2230831Y-1718157D01*
X2229459Y-1723389D01*
X2228646Y-1728927D01*
X2228342Y-1734820D01*
X2228646Y-1740966D01*
X2229561Y-1746757D01*
X2231034Y-1752193D01*
X2233015Y-1757273D01*
X2235555Y-1761947D01*
X2238552Y-1766265D01*
X2242007Y-1770176D01*
X2245918Y-1773783D01*
X2250186Y-1776984D01*
X2254859Y-1779778D01*
X2259838Y-1782267D01*
X2265172Y-1784350D01*
X2265172Y-1785620D01*
X2259228Y-1787296D01*
X2253538Y-1789480D01*
X2248154Y-1792173D01*
X2243124Y-1795322D01*
X2238451Y-1799031D01*
X2234285Y-1803196D01*
X2230577Y-1807870D01*
X2227427Y-1813001D01*
X2224938Y-1818538D01*
X2223058Y-1824583D01*
X2221890Y-1831035D01*
X2221484Y-1837943D01*
X2221788Y-1844548D01*
X2222754Y-1850796D01*
X2224328Y-1856689D01*
X2226513Y-1862226D01*
X2229154Y-1867357D01*
X2232355Y-1872132D01*
X2236063Y-1876501D01*
X2240178Y-1880412D01*
X2244750Y-1883968D01*
X2249678Y-1887067D01*
X2254961Y-1889709D01*
X2260600Y-1891893D01*
X2266492Y-1893620D01*
X2272690Y-1894839D01*
X2279142Y-1895602D01*
X2285746Y-1895856D01*
X2293416Y-1895602D01*
X2300630Y-1894789D01*
X2307386Y-1893468D01*
X2313736Y-1891792D01*
X2319578Y-1889658D01*
X2325065Y-1887220D01*
X2330196Y-1884476D01*
X2334920Y-1881479D01*
X2339289Y-1878279D01*
X2343353Y-1874926D01*
X2350516Y-1867916D01*
X2338832Y-1853184D01*
X2334158Y-1857705D01*
X2329129Y-1862023D01*
X2323642Y-1866036D01*
X2317597Y-1869541D01*
X2310993Y-1872538D01*
X2303729Y-1874824D01*
X2295753Y-1876298D01*
X2287016Y-1876806D01*
X2281021Y-1876501D01*
X2275281Y-1875586D01*
X2269947Y-1874062D01*
X2265019Y-1871929D01*
X2260498Y-1869287D01*
X2256434Y-1866087D01*
X2252929Y-1862429D01*
X2249932Y-1858213D01*
X2247544Y-1853539D01*
X2245817Y-1848459D01*
X2244699Y-1842871D01*
X2244344Y-1836928D01*
X2244547Y-1832305D01*
X2245156Y-1827885D01*
X2246274Y-1823720D01*
X2247798Y-1819706D01*
X2249779Y-1815998D01*
X2252319Y-1812543D01*
X2255367Y-1809343D01*
X2258923Y-1806397D01*
X2263038Y-1803806D01*
X2267762Y-1801469D01*
X2273046Y-1799488D01*
X2278938Y-1797812D01*
X2285492Y-1796491D01*
X2292705Y-1795525D01*
X2300579Y-1794967D01*
X2309114Y-1794764D01*
X2309114Y-1776984D01*
X2299004Y-1776628D01*
X2290064Y-1775561D01*
X2282139Y-1773834D01*
X2275281Y-1771548D01*
X2269388Y-1768652D01*
X2264410Y-1765249D01*
X2260346Y-1761337D01*
X2257094Y-1757019D01*
X2254656Y-1752346D01*
X2252980Y-1747316D01*
X2252014Y-1741932D01*
X2251710Y-1736343D01*
X2252319Y-1729130D01*
X2254199Y-1722628D01*
X2257196Y-1716887D01*
X2261311Y-1712010D01*
X2266492Y-1708048D01*
X2272588Y-1705102D01*
X2279650Y-1703273D01*
X2287524Y-1702562D01*
X2293721Y-1703019D01*
X2299716Y-1704187D01*
X2305456Y-1706016D01*
X2310993Y-1708454D01*
X2316276Y-1711401D01*
X2321255Y-1714804D01*
X2326030Y-1718665D01*
X2330450Y-1722882D01*
X2342896Y-1708150D01*
X2335174Y-1701596D01*
X2326843Y-1695805D01*
X2322474Y-1693214D01*
X2317953Y-1690928D01*
X2313228Y-1688947D01*
X2308301Y-1687220D01*
X2303170Y-1685848D01*
X2297836Y-1684832D01*
X2292299Y-1684223D01*
G37*
G36*
X1167892Y-1687830D02*
G01*
X1167892Y-1892300D01*
X1191006Y-1892300D01*
X1191006Y-1794510D01*
X1289558Y-1794510D01*
X1289558Y-1892300D01*
X1312926Y-1892300D01*
X1312926Y-1687830D01*
X1289558Y-1687830D01*
X1289558Y-1774443D01*
X1191006Y-1774443D01*
X1191006Y-1687830D01*
G37*
G36*
X2525014Y-1687830D02*
G01*
X2525014Y-1707388D01*
X2617978Y-1707388D01*
X2617978Y-1779524D01*
X2539238Y-1779524D01*
X2539238Y-1799082D01*
X2617978Y-1799082D01*
X2617978Y-1892300D01*
X2641092Y-1892300D01*
X2641092Y-1687830D01*
G37*
G36*
X2767838Y-1687830D02*
G01*
X2767838Y-1872742D01*
X2677160Y-1872742D01*
X2677160Y-1892300D01*
X2790952Y-1892300D01*
X2790952Y-1687830D01*
G37*
G36*
X1019556Y-1741424D02*
G01*
X1019556Y-1753362D01*
X1101344Y-1873504D01*
X1017016Y-1873504D01*
X1017016Y-1892300D01*
X1130046Y-1892300D01*
X1130046Y-1880107D01*
X1048258Y-1760220D01*
X1121156Y-1760220D01*
X1121156Y-1741424D01*
G37*
G36*
X2371344Y-1805432D02*
G01*
X2371344Y-1823212D01*
X2441956Y-1823212D01*
X2441956Y-1805432D01*
G37*
D10*
X908050Y-796925D02*
G01*
X665609Y-796925D01*
X1663712Y-406400D02*
G01*
X1663712Y-1155700D01*
X882650Y-796925D01*
X1663712Y-406400D01*
X1663712Y-630565D02*
G01*
X2641600Y-630565D01*
X1663712Y-951402D02*
G01*
X2413000Y-952500D01*
X1955800Y-1104900D02*
G01*
X2209800Y-1104900D01*
X1955800Y-1168400D02*
G01*
X2209800Y-1168400D01*
X2070100Y-1397000D02*
G01*
X2095500Y-1397000D01*
X2032000Y-1346200D02*
G01*
X2133600Y-1346200D01*
X1993900Y-1295400D02*
G01*
X2171700Y-1295400D01*
X2081659Y-1168400D02*
G01*
X2081659Y-1295400D01*
X2081349Y-951979D02*
G01*
X2082800Y-1092200D01*
X1606562Y-635000D02*
G01*
X1441462Y-635000D01*
X1524012Y-558800D02*
G01*
X1524012Y-711200D01*
X1600212Y-952500D02*
G01*
X1447812Y-952500D01*
G36*
X2413000Y-889000D02*
G01*
X2755900Y-889000D01*
X2755900Y-1009650D01*
X2413000Y-1009650D01*
G37*
M02*
